<svg xmlns="http://www.w3.org/2000/svg" viewBox="0 0 244.5 237.87"><defs><style>.cls-1{opacity:0.6;}.cls-2{fill:none;}</style></defs><title>2.6.3</title><g id="_2.6.2" data-name="2.6.2"><path id="Eye" d="M133.3,37.19c-.21.76-.1,1,.13,1.29s.42-1.52.37-1.84-.28-.65-.3-.35A5.87,5.87,0,0,1,133.3,37.19Z"/><path d="M162.19,124.39c1.49,0,2.88.07,4.13.18.1-.89.17-1.72.19-2.52a52.41,52.41,0,0,1-6.63.82c-1.32.09-2.61.13-3.84.13a35.56,35.56,0,0,1-7.23-.63,11.81,11.81,0,0,1-.09,1.49q.75.15,1.59.27c-.59.13-1.15.27-1.68.41a8.93,8.93,0,0,1-.26,1.13c-.05.18-.1.36-.16.53a45.69,45.69,0,0,1,10.14-1.68C159.68,124.43,161,124.39,162.19,124.39Z"/><path d="M92.86,76.88c.32.38.66.75,1,1.12l.26-.12a19.35,19.35,0,0,1,3.06-1c1,0,2,0,3.11-.12a51.42,51.42,0,0,0,8.94-1.31h1.36l-1.09-1c-.17-.15-.33-.32-.49-.49-1,0-2,.06-3.09.13A51.29,51.29,0,0,0,97,75.38h-.63a41.64,41.64,0,0,1-4.85-.26,17.56,17.56,0,0,0,1.2,1.6l.36,0A1.71,1.71,0,0,0,92.86,76.88Z"/><path d="M88.85,57.69a48.16,48.16,0,0,1,9-1.36h.05l1.2,0c1.22,0,2.51,0,3.83-.13a40.1,40.1,0,0,1,4.69.38,18.52,18.52,0,0,1,2.81-2.85,52.87,52.87,0,0,1-7.48,1h-.06l-1.21,0c-1.22,0-2.5,0-3.82.13a32.25,32.25,0,0,1-6.26-.67c-.36-.09-.69-.18-1-.28-.26.43-.51.86-.74,1.31.43.15.92.29,1.46.42-.65.12-1.27.24-1.86.38A15.05,15.05,0,0,0,88.85,57.69Z"/><path d="M88.14,63.42c0,.48,0,1,.1,1.5a48.25,48.25,0,0,1,9.51-1.49c1.33-.09,2.62-.13,3.84-.13s2.61.05,3.76.15a15.76,15.76,0,0,1,.39-2.79,52.39,52.39,0,0,1-7.43,1c-1.33.09-2.62.13-3.85.13a40,40,0,0,1-6.29-.45c0,.47,0,1,0,1.48.51.09,1.05.16,1.62.22C89.19,63.15,88.65,63.28,88.14,63.42Z"/><path d="M100.74,82.88l1.53.89a25.61,25.61,0,0,1,5.5-1.53c1.84-.15,3.58-.38,5.17-.67l1.08-.08c1.33-.09,2.62-.13,3.84-.13s2.4,0,3.49.13c-2.19-.94-3.79-1.65-5-2.22a35.25,35.25,0,0,1-3.6.84c-1.84.16-3.59.38-5.17.67l-1.09.08c-1.33.09-2.62.13-3.85.13A41.77,41.77,0,0,1,97,80.64a23.1,23.1,0,0,0,2.25,1.41l.61.34c.56,0,1.13,0,1.72.06C101.28,82.59,101,82.74,100.74,82.88Z"/><path d="M98.27,70.22c1.42-.09,2.78-.23,4.06-.4h1.3c1,0,1.91,0,2.79.08a14.86,14.86,0,0,1-.67-2.15c-1.08.23-2.27.44-3.54.61-.82,0-1.66.06-2.52.11-1.42.1-2.78.23-4.06.4l-1.29,0a42.43,42.43,0,0,1-5.52-.33c.09.43.19.88.3,1.34l.06.19.32,0h0l-.25.08c.13.46.27.93.45,1.4a37.84,37.84,0,0,1,6.09-1.27Q97,70.31,98.27,70.22Z"/><path d="M163.1,135.73a52.22,52.22,0,0,1-7.71,1c-1.33.09-2.62.13-3.85.13a34.28,34.28,0,0,1-7.5-.69c-.27-.06-.52-.13-.76-.2-.31.4-.65.8-1,1.22a15,15,0,0,0,2.57.65c-1.42.22-2.73.48-3.9.77-.73.75-1.53,1.52-2.43,2.32A40.2,40.2,0,0,1,150,138.81c1.33-.09,2.62-.13,3.84-.13a39.21,39.21,0,0,1,6.33.46,16.75,16.75,0,0,0,1.27-1.26l-.89-.18,1.23-.2A17.11,17.11,0,0,0,163.1,135.73Z"/><path d="M150.41,144.13c-1.33.09-2.62.13-3.84.13a34.38,34.38,0,0,1-7.51-.69,7.51,7.51,0,0,1-2.07-.73,1.9,1.9,0,0,1-.37-.26l0,0c-.38.32-.75.61-1.12.9a4.17,4.17,0,0,0,1.48,1l-1.32.07c-.55,0-1.1.08-1.64.13-.88.67-1.7,1.25-2.47,1.76,1.33-.18,2.74-.33,4.21-.42s2.61-.13,3.84-.13a34.28,34.28,0,0,1,7.5.69c.28.06.54.13.77.2q1-.44,1.86-.84a4,4,0,0,0-.51-.24l1.13-.07A23.33,23.33,0,0,0,153.2,144l.15-.1C152.4,144,151.42,144.07,150.41,144.13Z"/><path d="M128.15,151.27a21.66,21.66,0,0,0-4.45-.82,5.81,5.81,0,0,1-1-.42l-.32-.22-1.6.17a1.88,1.88,0,0,0,.12.3c-.55,0-1.11,0-1.69,0-1.26,0-2.58,0-3.94.13a53,53,0,0,0-8.27,1.15,44.34,44.34,0,0,0,4.44.71c1.24-.17,2.56-.3,3.92-.39s2.62-.13,3.85-.13c1.5,0,2.9.06,4.16.18a14.35,14.35,0,0,0,1.41.37l.83-.07c2-.2,3.92-.46,5.75-.76C130.23,151.42,129.15,151.36,128.15,151.27Z"/><path d="M155.4,109.42c-.66,0-1.31.12-1.94.19l-.9.06c-1.33.09-2.62.13-3.85.13s-2.25,0-3.26-.1a27.29,27.29,0,0,1,1.27,2.68,42.89,42.89,0,0,1,6.91-1.31c.66,0,1.31-.11,1.94-.18l.9-.07c1.33-.09,2.61-.13,3.84-.13,1.39,0,2.7.06,3.89.16a22.8,22.8,0,0,0-1.67-2.81A41.59,41.59,0,0,1,155.4,109.42Z"/><path d="M140.27,90c-.46-.24-.93-.47-1.41-.7a6.11,6.11,0,0,1-1.12.63,20.48,20.48,0,0,1-4.12,1.28c-1.67.2-3.23.46-4.63.77-1,.12-2.07.22-3.15.29-1.33.09-2.62.13-3.85.13a43,43,0,0,1-4.45-.21c1,.38,2.53,1,4.34,1.68H122l1.62,0-.11.06a4.88,4.88,0,0,0-.55.4l1.63.68c.16-.09.35-.18.55-.27a20.57,20.57,0,0,1,4.11-1.28c1.67-.2,3.23-.46,4.63-.77,1-.12,2.07-.22,3.16-.29,1.32-.09,2.61-.13,3.83-.13,1.4,0,2.7.06,3.89.16-.94-.55-1.92-1.09-2.94-1.63h-.95l-1.6,0,.11-.07A4.16,4.16,0,0,0,140.27,90Z"/><path d="M158.71,129.85c-1.2,0-2.45,0-3.74.12h0a34.93,34.93,0,0,1-7.5-.68l-.26-.07c-.17.46-.36.91-.57,1.38.38.1.77.19,1.2.27-.51.1-1,.21-1.48.32-.28.58-.59,1.17-.94,1.77a47.69,47.69,0,0,1,9.57-1.51H155c1.2,0,2.45,0,3.74-.13h0a41.13,41.13,0,0,1,6.13.42c.08-.27.16-.55.23-.84.15-.67.29-1.3.41-1.91a52.47,52.47,0,0,1-6.77.85Z"/><path d="M128.77,84.67,127.23,84a6.42,6.42,0,0,1-.88.46,19.57,19.57,0,0,1-3.71,1.19,48.17,48.17,0,0,0-5.67.94c-.82.08-1.66.16-2.52.21-1.33.09-2.62.13-3.84.13s-2.13,0-3.1-.09c.91.53,1.81,1.06,2.69,1.56h.41l1.33,0-.07,0a4.76,4.76,0,0,0-.7.53l1.39.78a6.64,6.64,0,0,1,.94-.51,20.72,20.72,0,0,1,3.72-1.19,49,49,0,0,0,5.67-.93c.82-.09,1.66-.17,2.51-.22,1.33-.09,2.62-.13,3.84-.13a44.37,44.37,0,0,1,4.87.25l-3.87-1.71h-2.32l.06,0A4.58,4.58,0,0,0,128.77,84.67Z"/><path d="M102.54,49.41c1.34-.08,2.63-.12,3.85-.12a34.3,34.3,0,0,1,7.5.68,8.84,8.84,0,0,1,1.71.55l1.59-.76a4.73,4.73,0,0,0-1.28-.71,13.25,13.25,0,0,0-1.73-.53c1.73-.16,3.35-.39,4.84-.67l-.57-1.4a53.93,53.93,0,0,1-6.26.76c-1.33.08-2.62.12-3.84.12a34.4,34.4,0,0,1-7.51-.68,9.85,9.85,0,0,1-1.76-.57c-.49.27-1,.55-1.44.85a5,5,0,0,0,1.19.64,13.25,13.25,0,0,0,1.73.53,49.76,49.76,0,0,0-5.7.84A21.58,21.58,0,0,0,92.75,51,46.51,46.51,0,0,1,102.54,49.41Z"/><path d="M156.9,116.14c-1.33.09-2.62.13-3.85.13a43.38,43.38,0,0,1-5.12-.28c.14.51.26,1,.36,1.52.4,0,.82.08,1.25.12l-.41.11-.75.24c.1.5.18,1,.24,1.48a43.06,43.06,0,0,1,10.83-1.91c1.33-.09,2.62-.13,3.84-.13q1.53,0,2.91.09c-.14-.85-.33-1.72-.56-2.65A50.3,50.3,0,0,1,156.9,116.14Z"/><path d="M158,102.74l-1.16-1.13a29.51,29.51,0,0,1-5.13,1.29c-2,.15-3.91.38-5.64.67l-.26,0c-1.33.09-2.62.13-3.84.13l-1.32,0,.65.56a16.92,16.92,0,0,1,1.51,1.54c1-.28,2.18-.54,3.45-.76a56,56,0,0,0,5.64-.67l.25,0c1.33-.09,2.62-.13,3.84-.13s2.46,0,3.56.13c-.47-.52-1-1-1.5-1.56h-.16Z"/><path d="M150.69,96.28c-.43-.33-.87-.65-1.32-1h0a25.58,25.58,0,0,1-5.89,1.63c-1.54.15-3,.34-4.34.58l-1.67.13c-1.33.09-2.62.13-3.85.13q-1.56,0-3-.09c1.5.73,3,1.51,4.42,2.31a33.5,33.5,0,0,1,4.28-1c1.54-.15,3-.34,4.35-.58l1.66-.13c1.33-.09,2.62-.13,3.84-.13,1.43,0,2.77.06,4,.17l-.2-.18c-.56-.49-1.14-1-1.72-1.42l-1.33,0A6.92,6.92,0,0,0,150.69,96.28Z"/><path id="Tail" d="M141.77,134.72a1,1,0,0,1,.16-.61c-4,6.82-13.12,11.8-25.95,11.8-29.11,0-50.67-25.4-34.86-51.92l-1.46-1.06c-18.44,24.1-6.44,54.46,27.66,60.39a30.61,30.61,0,0,1,3.42-.89,25.23,25.23,0,0,1-5.08-1.19s1.42.25,11.52-.53c2.37-.18,4.29-.33,6-.54l-.1-.3c-.15-1.67,4.63-3.49,11.12-4.37,1-.74,2-1.59,3.14-2.58a1.06,1.06,0,0,1-.32-.63c-.09-1,1.46-2,4-2.82a40.23,40.23,0,0,0,2.83-3.2C142.58,135.87,141.82,135.34,141.77,134.72Z"/><path id="Body_2" data-name="Body 2" d="M151.48,37.53A10.57,10.57,0,0,0,149.27,34c-1-1.23-1.71-3.35-2.86-4s-6-.81-8.08-.89-.57-.9-.9-1.23-1.8.25-3.27.74-3,0-4.65.4a22.32,22.32,0,0,1-4,.54c-.74,0-2.45.69-3,.69a15.71,15.71,0,0,0-2.91.49h0c-.63,0-1.24,0-1.85,0v-.05c-15,0-27.88,3.06-37.08,8.23a33,33,0,0,0-10.84,9.25,20,20,0,0,0-4,11.78,21.32,21.32,0,0,0,1.21,6.94,28,28,0,0,0,8.87,12.58C82,84.57,90.23,88.19,100,92.28c9,3.75,19.25,7.87,30.34,13.74,13.57,8.09,16.58,19.4,11.69,27.92.63-.84,2.36-1.67,4.78-2.36.37-.76.69-1.49,1-2.21-1.69-.42-2.72-1-2.79-1.76-.09-1,1.55-2,4.23-2.89a11.92,11.92,0,0,0,.29-2.29c-2.15-.42-3.48-1.09-3.56-1.93s1.14-1.75,3.21-2.54c-.11-.65-.25-1.32-.41-2-3.46-.33-5.76-1.13-5.86-2.25-.09-1,1.49-2,4.09-2.85-.19-.42-.38-.84-.59-1.25-4.58-.19-7.78-1.07-7.91-2.4-.09-1,1.55-2,4.24-2.89-.24-.25-.5-.5-.75-.73-5.82,0-10.13-.89-10.28-2.43-.07-.83,1.06-1.69,3-2.46l-1.93-1c-5.36,0-9.25-1-9.39-2.43,0-.46.3-.93.93-1.39-1.42-.57-2.71-1.08-3.82-1.5-5-.11-8.54-1-8.67-2.41a1.47,1.47,0,0,1,.68-1.19c-1-.53-1.95-1.08-3-1.67-5.18-.08-8.89-1-9-2.43,0-.61.56-1.24,1.67-1.84-.78-.45-1.53-.87-2.23-1.25-.28-.15-.54-.33-.82-.49-3.87-.29-6.49-1.13-6.6-2.32,0-.59.5-1.2,1.53-1.77q-.68-.74-1.26-1.5c-3.84-.29-6.43-1.13-6.54-2.32-.09-.93,1.37-1.91,3.8-2.74-.11-.35-.24-.69-.33-1s-.09-.39-.14-.58c-3.24-.36-5.36-1.15-5.46-2.22s1.69-2.11,4.57-3c-.06-.75-.09-1.47-.08-2.14-2.69-.4-4.4-1.12-4.49-2.09s2-2.3,5.39-3.23a17.54,17.54,0,0,1,1.05-2.36c-1.19-.4-1.9-.91-2-1.53-.1-1.11,2-2.3,5.39-3.23A24.25,24.25,0,0,1,97.67,46l-.11-.36c-.16-1.68,4.69-3.51,11.24-4.38.43-.1.85-.22,1.27-.3l.86.05.56-.05,1.66-.12a13,13,0,0,0,0,2.78c.34,3.2,1.7,3.56,2.55,4.1a16,16,0,0,0-2.62,4.95,32.77,32.77,0,0,1-3.71,1c-.39.39-.77.82-1.13,1.26,2.11.33,3.6.87,4.12,1.57,0,.32,0,.66,0,1a2.09,2.09,0,0,0,0,.25c-.75,1-3.2,2.07-6.58,2.85-.07.43-.11.86-.14,1.29,4.06.27,6.84,1.11,6.95,2.35s-2.42,2.52-6.32,3.47c.07.23.12.47.2.7,4.76.15,8.12,1,8.25,2.4.1,1-1.74,2.14-4.7,3l.15.13c6.09-.13,10.67.83,10.82,2.42.08.86-1.18,1.77-3.3,2.56.61.28,1.28.57,2.08.91a32,32,0,0,1,6,.56c.94.86,1.93,1.73,3,2.62a3.1,3.1,0,0,1-.4.42c1.41.59,2.75,1.16,4,1.72a27.81,27.81,0,0,1,4.91.58l-7-4A23.91,23.91,0,0,1,125.75,75a39.3,39.3,0,0,1-3.54-13.56s0-.24,0-.69,0-1.1,0-1.92c0-1.3,0-3,.2-4.93a9.6,9.6,0,0,1,2,1.18c1.23,1,1.64,3.18,3.92,4.9a74.71,74.71,0,0,1,6,5.22,7.1,7.1,0,0,0,5.55,2c.57,0,3.18-1,3.43-1.47s.58,0,.81-.66l1.83,4.24-.28-5.31s1.26-.24,3,1.34c.84.77,1.86,1,1.42.65,0,0-2.07-2.16-3.4-3.69-1.91-2.19-2.68-3.17-3.58-4.09,0-.1-.07-.21-.11-.32l-.18-.52-.13-.29-2.73-6h0a6,6,0,0,1-.15-.83h0a6.36,6.36,0,0,0,2.16-1.59A8.32,8.32,0,0,0,143,45.31a3.46,3.46,0,0,1,1.09-.76c2.53-1.31,0-.93,2-1.15a4.08,4.08,0,0,1,1.62.09h.05c.13,0,.4.25-.05,1.24a27.24,27.24,0,0,1-1.37,2.78,6,6,0,0,1-1.1,1.64A6.64,6.64,0,0,0,147.19,48a8.07,8.07,0,0,0,1.8-2.9c.23-.66.39-1.06.45-1.35l.28,0c1.64-.24,2.49-2.57,2.57-3.06A10.27,10.27,0,0,0,151.48,37.53ZM81.67,57.8C79.88,72,86.87,82.27,101.61,90.34l3.76,2c-5-2.08-9.61-4-13.78-5.89C85.87,83.87,81,81.2,77.18,78A25.89,25.89,0,0,1,68.9,66.29,19.19,19.19,0,0,1,67.8,60a18,18,0,0,1,3.58-10.64c3.51-4.89,9.55-9.08,17.49-12a70.48,70.48,0,0,1,10.29-2.88C89.06,38.82,83,46.9,81.67,57.8Zm42.8,17.84c.34.7.68,1.38,1,2a49.85,49.85,0,0,1-7.8-9.31c-2.62-4.21-3.6-7.85-3.6-10.94a13.83,13.83,0,0,1,2.51-8,3.37,3.37,0,0,0,2.18,2.77c.81.42,1.52.75,2.16,1-.19,2.18-.24,4.12-.25,5.57,0,1.67.07,2.7.07,2.71A40.78,40.78,0,0,0,124.47,75.64Zm8.34-39.85a4.77,4.77,0,0,1,3.07,1.08c1,.74.82.33.49,1.23s-.25.73-1.63,1.39-1.31.41-2,0-1-1.06-1.48-3.27A3,3,0,0,1,132.81,35.79Zm8.89,25.69c-.41,1-2.62.81-4,.57s-1.79-.82-5.47-4.49-7.59-10.78-7.59-10.78l.1-1.76a10.33,10.33,0,0,1,1.14-.06c.81.78,3.73,3.55,7.09,6.64a77.42,77.42,0,0,1,5.66,5.58l3.3,3.75C141.84,61.14,141.76,61.32,141.7,61.48Zm-1.12-7.42,1.62,3.42-.51-.45c-2.7-2.33-7.63-9.66-9.58-12.13l.74,0h.55a15.69,15.69,0,0,1,3.08.4l2.47,5.3a3.36,3.36,0,0,1-.29.28l.35-.15Zm0-5.66c-.34.54-.64,1-.9,1.3a7.3,7.3,0,0,1,1.42-4h.29A4.06,4.06,0,0,1,140.58,48.4Z"/><g id="Body_2-2" data-name="Body 2"><path d="M163.21,107.49c.31.46.62.92.88,1.4.35,0,.69,0,1,.07-.31-.6-.68-1.19-1-1.79Z"/><path d="M152.43,96.3c.75,0,1.45.09,2.1.16-1-.85-2.12-1.69-3.28-2.51a5,5,0,0,1-1,.67Q151.38,95.43,152.43,96.3Z"/><path d="M161.65,137.85c.39.07.76.15,1.09.23a27.59,27.59,0,0,0,1.77-2.49l-1.25.31A18.14,18.14,0,0,1,161.65,137.85Z"/><path d="M165.8,130l0,.13c.47.07.9.15,1.31.24.22-.62.4-1.26.57-1.9-.51.14-1.06.27-1.63.39C165.94,129.27,165.88,129.62,165.8,130Z"/><path d="M166.9,122.82c.56.05,1.09.1,1.59.17,0-.52,0-1,0-1.57-.49.13-1,.25-1.55.36C166.94,122.12,166.93,122.47,166.9,122.82Z"/><path d="M166.17,114.43c.1.41.19.82.27,1.21.43,0,.86,0,1.27.07-.14-.54-.26-1.08-.43-1.61C166.93,114.21,166.56,114.33,166.17,114.43Z"/><path d="M140.31,87.51a1.31,1.31,0,0,1-.48,1c1.29.63,2.52,1.25,3.68,1.88.83,0,1.62.07,2.36.14-.75-.43-1.48-.87-2.27-1.29l-3.33-1.87Z"/><path d="M158.79,100.39a10.27,10.27,0,0,1-1.15.57c.48.47.93.93,1.37,1.39l1.63.1C160.05,101.76,159.44,101.07,158.79,100.39Z"/><path d="M137.63,152.09a50.58,50.58,0,0,1-8.11.09c1.12.36,1.84.82,2,1.36a68.69,68.69,0,0,0,8.48-1.71C139.24,151.93,138.45,152,137.63,152.09Z"/><path d="M153,144.37c-.8.49-1.82,1.06-3,1.65.9.36,1.46.8,1.56,1.3a40.66,40.66,0,0,0,5.43-3.54C155.73,144,154.4,144.22,153,144.37Z"/></g><path d="M127.63,153.72a49.25,49.25,0,0,1-7.91.09c1.1.35,1.8.8,2,1.33a67.35,67.35,0,0,0,8.26-1.67C129.2,153.57,128.43,153.65,127.63,153.72Z"/><path d="M45.28,99.85a2,2,0,0,1-.69-1.53,2.22,2.22,0,0,1,.72-1.45L52.15,90a2.34,2.34,0,0,0,.74-1.48A2,2,0,0,0,52.2,87a2,2,0,0,0-1.55-.7,2.33,2.33,0,0,0-1.46.75,41.58,41.58,0,0,0-3.92,4.46,36.42,36.42,0,0,0-2.72,4.17,41,41,0,0,0-1.95,4c-.56,1.32-1.1,2.64-1.64,4s-1.09,2.65-1.68,4a43.78,43.78,0,0,1-2.13,4.2,43.2,43.2,0,0,1-3,4.48,49.83,49.83,0,0,1-4.32,4.86,6.72,6.72,0,0,1-2.17,1.48,5.4,5.4,0,0,1-2.38.38,6.57,6.57,0,0,1-2.44-.67,9.39,9.39,0,0,1-2.31-1.7,7.32,7.32,0,0,1-2.43-4.79,5.82,5.82,0,0,1,1.92-4.5l7.81-7.81a.84.84,0,0,1,.52-.26.65.65,0,0,1,.53.23L28.28,105a2,2,0,0,1,.69,1.53,2.25,2.25,0,0,1-.71,1.46l-6.85,6.84a2.36,2.36,0,0,0-.74,1.48,2,2,0,0,0,.69,1.53,2,2,0,0,0,1.55.7,2.33,2.33,0,0,0,1.47-.75,43.73,43.73,0,0,0,5.24-6.19A43.22,43.22,0,0,0,32.89,106c.86-1.82,1.62-3.59,2.27-5.34s1.41-3.52,2.26-5.32a44,44,0,0,1,3.2-5.58,42.15,42.15,0,0,1,5.15-6.09,6.51,6.51,0,0,1,2.17-1.48,5.47,5.47,0,0,1,2.37-.38,6.45,6.45,0,0,1,2.43.66,9.35,9.35,0,0,1,2.32,1.71,7.34,7.34,0,0,1,2.44,4.79,5.9,5.9,0,0,1-1.93,4.51l-7.81,7.81a.88.88,0,0,1-.51.25.66.66,0,0,1-.54-.23Z"/><path d="M78.16,108.07a.62.62,0,0,1,.2.51.88.88,0,0,1-.2.51L46.63,146.74a.8.8,0,0,1-.57.3.91.91,0,0,1-.73-.32l-1.25-1.25a2.25,2.25,0,0,1-.69-1.43,1.89,1.89,0,0,1,.44-1.38l4.59-5.16-2.58-2.57-5.15,4.59a1.89,1.89,0,0,1-1.38.43,2.13,2.13,0,0,1-1.43-.69L36.63,138a.87.87,0,0,1-.32-.72.8.8,0,0,1,.29-.58l37.65-31.52a1,1,0,0,1,.51-.21.62.62,0,0,1,.51.21ZM48.85,132.22l2.25,2.25,18-20.22Z"/><path d="M92.58,125.1a1.7,1.7,0,0,1,1.35-.54,2.17,2.17,0,0,1,1.43.72l1.43,1.43a.64.64,0,0,1,.23.53.83.83,0,0,1-.25.51L62.48,162a1.27,1.27,0,0,1-1.83,0l-1.59-1.58a1.26,1.26,0,0,1-.38-.92,1.28,1.28,0,0,1,.38-.92Z"/><path d="M74.84,176.22a.64.64,0,0,1-.23-.53.83.83,0,0,1,.25-.51l34.67-34.67a.83.83,0,0,1,.51-.25.64.64,0,0,1,.53.23l1.43,1.43a2.22,2.22,0,0,1,.72,1.43,1.7,1.7,0,0,1-.54,1.35L80.61,176.28l3.14,3.14a1.66,1.66,0,0,1,.53,1.35,2.2,2.2,0,0,1-.71,1.43l-.87.87a.69.69,0,0,1-.54.23.9.9,0,0,1-.51-.26Z"/><path d="M111.88,195.33a2,2,0,0,1-1.53.69,2.23,2.23,0,0,1-1.46-.71l-6.84-6.84a2.27,2.27,0,0,0-1.48-.74A2.39,2.39,0,0,0,98.34,190a2.33,2.33,0,0,0,.75,1.47,42.68,42.68,0,0,0,4.45,3.92,35.9,35.9,0,0,0,4.18,2.71,43.52,43.52,0,0,0,4,2c1.32.55,2.64,1.1,4,1.63s2.65,1.1,4,1.69a37.78,37.78,0,0,1,4.2,2.13,40.55,40.55,0,0,1,4.48,3,51.38,51.38,0,0,1,4.86,4.33,6.23,6.23,0,0,1,1.48,2.17,5.36,5.36,0,0,1,.39,2.37,6.35,6.35,0,0,1-.68,2.44,8.58,8.58,0,0,1-1.7,2.31,7.32,7.32,0,0,1-4.78,2.44,5.85,5.85,0,0,1-4.51-1.93l-7.81-7.81a.78.78,0,0,1-.25-.51.66.66,0,0,1,.23-.54l1.43-1.43a2,2,0,0,1,1.53-.69,2.29,2.29,0,0,1,1.45.72l6.84,6.84a2.29,2.29,0,0,0,1.48.74,2,2,0,0,0,1.53-.69,2,2,0,0,0,.71-1.54,2.4,2.4,0,0,0-.76-1.47,42.66,42.66,0,0,0-6.19-5.25,44.26,44.26,0,0,0-5.64-3.26q-2.71-1.29-5.33-2.28c-1.75-.65-3.52-1.4-5.33-2.25a43.37,43.37,0,0,1-5.57-3.21,41,41,0,0,1-6.09-5.14,6.61,6.61,0,0,1-1.48-2.17,5.26,5.26,0,0,1-.38-2.38,6.4,6.4,0,0,1,.66-2.42,8.71,8.71,0,0,1,1.71-2.32,7.32,7.32,0,0,1,4.79-2.44,5.8,5.8,0,0,1,4.5,1.93l7.81,7.81a.79.79,0,0,1,.26.51.67.67,0,0,1-.23.53Z"/><path d="M123.54,159a.66.66,0,0,1,.54-.23.79.79,0,0,1,.51.26l34.66,34.66a.79.79,0,0,1,.26.51.66.66,0,0,1-.23.54l-1.43,1.43a2.12,2.12,0,0,1-1.34.7,2,2,0,0,1-1.29-.42,14.5,14.5,0,0,0-1.62-1.24c-.88-.62-1.94-1.37-3.2-2.23l-4.16-2.86L141.68,187l-4.37-3q-2.07-1.44-3.56-2.52l18.15,17.64a2.1,2.1,0,0,1,.73,1.44,2,2,0,0,1-.7,1.55l-1.43,1.43a.69.69,0,0,1-.54.23.84.84,0,0,1-.51-.26l-34.66-34.66a.79.79,0,0,1-.26-.51.69.69,0,0,1,.23-.54l1.43-1.43a2.23,2.23,0,0,1,1.38-.69,1.87,1.87,0,0,1,1.35.46l1.9,1.44c1,.73,2.12,1.58,3.48,2.56l4.41,3.19q2.39,1.73,4.71,3.35t4.35,3c1.36.93,2.48,1.67,3.39,2.23l-19.23-18.71a1.69,1.69,0,0,1-.53-1.35,2.2,2.2,0,0,1,.71-1.43Z"/><path d="M142.92,139.64a.62.62,0,0,1,.51-.21,1,1,0,0,1,.51.21l37.65,31.52a.8.8,0,0,1,.29.58.87.87,0,0,1-.32.72l-1.25,1.25a2.13,2.13,0,0,1-1.43.69,1.87,1.87,0,0,1-1.37-.43l-5.16-4.6L169.77,172l4.6,5.16a1.92,1.92,0,0,1,.43,1.38,2.15,2.15,0,0,1-.69,1.43l-1.25,1.25a.91.91,0,0,1-.73.32.82.82,0,0,1-.57-.3L140,143.54a1,1,0,0,1-.2-.51.61.61,0,0,1,.2-.51Zm24.15,29.3,2.24-2.25-20.22-18Z"/><path d="M160.58,122a2.2,2.2,0,0,1,1.43-.71,1.69,1.69,0,0,1,1.35.53l14.78,14.78,1.07-1.32-12.84-16.52a2.09,2.09,0,0,1,.26-2.81l1.28-1.27a.88.88,0,0,1,.72-.32.67.67,0,0,1,.55.32l14.37,18.71L203.77,149a.79.79,0,0,1,.29.57.9.9,0,0,1-.31.73l-1.23,1.23a2.13,2.13,0,0,1-1.42.67,2,2,0,0,1-1.39-.42l-17.25-13.37-1.41,1.09,15.24,15.24a2.31,2.31,0,0,1,.72,1.46,2,2,0,0,1-.69,1.53l-1.43,1.43a.66.66,0,0,1-.54.23.79.79,0,0,1-.51-.26l-34.66-34.66a.79.79,0,0,1-.26-.51.66.66,0,0,1,.23-.54Z"/><path d="M188.81,93.74a.82.82,0,0,1,.51-.25.66.66,0,0,1,.54.23l.87.86a2.22,2.22,0,0,1,.71,1.43,1.68,1.68,0,0,1-.53,1.36l-3.14,3.14,13.75,13.75,3.4-3.39a.84.84,0,0,1,.51-.26.69.69,0,0,1,.54.23l.86.87a2.22,2.22,0,0,1,.72,1.43,1.7,1.7,0,0,1-.54,1.35l-2.63,2.63,13.4,13.4,3.14-3.13a1.7,1.7,0,0,1,1.36-.54,2.22,2.22,0,0,1,1.43.71l.86.87a.66.66,0,0,1,.23.54.8.8,0,0,1-.25.51l-6.82,6.81a.65.65,0,0,1-.53.23.78.78,0,0,1-.51-.25L182,101.6a.78.78,0,0,1-.25-.51.65.65,0,0,1,.23-.53Z"/><path class="cls-2" d="M117.21,8.22,90.62,34.8a47.29,47.29,0,0,1,8.22-1.57S76.26,62.56,76.59,63.31s-7.17,2.83-7.17,2.83a24.94,24.94,0,0,1-1.68-8.45L12.48,113l13.73,13.74v0L112,212.48h0l14.94,14.94L231.67,122.68Z"/><path d="M144.37,34l60.36,60.36A91.58,91.58,0,0,0,144.37,34Z"/><path d="M117.21,6.8,89.86,34.15A91.59,91.59,0,0,0,30.3,93.72L11.06,113l15.28,15.28a91.33,91.33,0,0,0,84.12,84.12l16.48,16.47,21.65-21.65a91.58,91.58,0,0,0,54.72-54.72l29.78-29.77Zm9.73,220.61L112,212.47h0l-85.8-85.81v0L12.48,113,67.74,57.69a16.46,16.46,0,0,1,3.68-10.38c4.63-6,13.23-10.67,18.2-12.21l1-.3L117.21,8.22,231.67,122.68Z"/></g></svg>