<?xml version="1.0" encoding="utf-8"?>
<!-- Generator: Adobe Illustrator 22.1.0, SVG Export Plug-In . SVG Version: 6.00 Build 0)  -->
<svg version="1.1" id="Layer_1" xmlns="http://www.w3.org/2000/svg" xmlns:xlink="http://www.w3.org/1999/xlink" x="0px" y="0px"
	 viewBox="0 0 244.5 237.9" style="enable-background:new 0 0 244.5 237.9;" xml:space="preserve">
<style type="text/css">
	.st0{fill:#FFFFFF;}
	.st1{fill:none;}
</style>
<title>2.6.3</title>
<g id="_2.6.2">
	<path id="Eye" class="st0" d="M133.5,38.8c-0.2,0.8-0.1,1,0.1,1.3s0.4-1.5,0.4-1.8s-0.3-0.7-0.3-0.3
		C133.6,38.2,133.6,38.5,133.5,38.8z"/>
	<path class="st0" d="M162.4,126c1.5,0,2.9,0.1,4.1,0.2c0.1-0.9,0.2-1.7,0.2-2.5c-2.2,0.4-4.4,0.7-6.6,0.8c-1.3,0.1-2.6,0.1-3.8,0.1
		c-2.4,0-4.8-0.2-7.2-0.6c0,0.5,0,1-0.1,1.5c0.5,0.1,1,0.2,1.6,0.3c-0.6,0.1-1.1,0.3-1.7,0.4c-0.1,0.4-0.1,0.8-0.3,1.1
		c-0.1,0.2-0.1,0.4-0.2,0.5c3.3-0.9,6.7-1.5,10.1-1.7C159.9,126.1,161.2,126,162.4,126z"/>
	<path class="st0" d="M93,78.5c0.3,0.4,0.7,0.8,1,1.1l0.3-0.1c1-0.4,2-0.8,3.1-1c1,0,2,0,3.1-0.1c3-0.2,6-0.6,8.9-1.3h1.4l-1.1-1
		c-0.2-0.2-0.3-0.3-0.5-0.5c-1,0-2,0.1-3.1,0.1c-3,0.2-6,0.6-8.9,1.3h-0.6c-1.6,0-3.2-0.1-4.8-0.3c0.4,0.6,0.8,1.1,1.2,1.6h0.4
		C93.2,78.4,93.1,78.4,93,78.5z"/>
	<path class="st0" d="M89,59.3c3-0.7,6-1.2,9-1.4h0.1h1.2c1.2,0,2.5,0,3.8-0.1c1.6,0,3.1,0.2,4.7,0.4c0.8-1,1.8-2,2.8-2.8
		c-2.5,0.5-5,0.8-7.5,1h-0.1h-1.2c-1.2,0-2.5,0-3.8,0.1c-2.1,0-4.2-0.2-6.3-0.7c-0.4-0.1-0.7-0.2-1-0.3c-0.3,0.4-0.5,0.9-0.7,1.3
		c0.4,0.2,0.9,0.3,1.5,0.4c-0.7,0.1-1.3,0.2-1.9,0.4C89.4,58.2,89.2,58.7,89,59.3z"/>
	<path class="st0" d="M88.3,65c0,0.5,0,1,0.1,1.5c3.1-0.8,6.3-1.3,9.5-1.5c1.3-0.1,2.6-0.1,3.8-0.1s2.6,0.1,3.8,0.2
		c0-0.9,0.2-1.9,0.4-2.8c-2.4,0.5-4.9,0.8-7.4,1c-1.3,0.1-2.6,0.1-3.8,0.1c-2.1,0-4.2-0.1-6.3-0.5c0,0.5,0,1,0,1.5
		c0.5,0.1,1.1,0.2,1.6,0.2C89.4,64.8,88.8,64.9,88.3,65z"/>
	<path class="st0" d="M100.9,84.5l1.5,0.9c1.8-0.7,3.6-1.2,5.5-1.5c1.8-0.2,3.6-0.4,5.2-0.7l1.1-0.1c1.3-0.1,2.6-0.1,3.8-0.1
		s2.4,0,3.5,0.1c-2.2-0.9-3.8-1.7-5-2.2c-1.2,0.3-2.4,0.6-3.6,0.8c-1.8,0.2-3.6,0.4-5.2,0.7l-1.1,0.1c-1.3,0.1-2.6,0.1-3.8,0.1
		c-1.9,0-3.8-0.1-5.6-0.3c0.7,0.5,1.5,1,2.3,1.4L100,84c0.6,0,1.1,0,1.7,0.1C101.5,84.2,101.2,84.4,100.9,84.5z"/>
	<path class="st0" d="M98.4,71.8c1.4-0.1,2.8-0.2,4.1-0.4h1.3c1,0,1.9,0,2.8,0.1c-0.3-0.7-0.5-1.4-0.7-2.2c-1.1,0.2-2.3,0.4-3.5,0.6
		c-0.8,0-1.7,0.1-2.5,0.1c-1.4,0.1-2.8,0.2-4.1,0.4h-1.3c-1.8,0-3.7-0.1-5.5-0.3c0.1,0.4,0.2,0.9,0.3,1.3l0.1,0.2h0.3l0,0l-0.3,0.1
		c0.1,0.5,0.3,0.9,0.4,1.4c2-0.6,4-1,6.1-1.3C96.8,71.9,97.6,71.9,98.4,71.8z"/>
	<path class="st0" d="M163.3,137.4c-2.5,0.5-5.1,0.9-7.7,1c-1.3,0.1-2.6,0.1-3.9,0.1c-2.5,0-5-0.2-7.5-0.7c-0.3-0.1-0.5-0.1-0.8-0.2
		c-0.3,0.4-0.6,0.8-1,1.2c0.8,0.3,1.7,0.5,2.6,0.6c-1.4,0.2-2.7,0.5-3.9,0.8c-0.7,0.8-1.5,1.5-2.4,2.3c3.7-1.3,7.6-2,11.5-2.1
		c1.3-0.1,2.6-0.1,3.8-0.1c2.1,0,4.2,0.1,6.3,0.5c0.4-0.4,0.9-0.8,1.3-1.3l-0.9-0.2l1.2-0.2C162.4,138.6,162.9,138,163.3,137.4z"/>
	<path class="st0" d="M150.6,145.8c-1.3,0.1-2.6,0.1-3.8,0.1c-2.5,0-5-0.2-7.5-0.7c-0.7-0.1-1.4-0.4-2.1-0.7
		c-0.1-0.1-0.3-0.2-0.4-0.3l0,0c-0.4,0.3-0.8,0.6-1.1,0.9c0.4,0.4,0.9,0.8,1.5,1l-1.3,0.1c-0.6,0-1.1,0.1-1.6,0.1
		c-0.9,0.7-1.7,1.3-2.5,1.8c1.3-0.2,2.7-0.3,4.2-0.4s2.6-0.1,3.8-0.1c2.5,0,5,0.2,7.5,0.7c0.3,0.1,0.5,0.1,0.8,0.2
		c0.7-0.3,1.3-0.6,1.9-0.8c-0.2-0.1-0.3-0.2-0.5-0.2l1.1-0.1c1-0.5,1.9-1,2.8-1.6l0.1-0.1C152.6,145.6,151.6,145.7,150.6,145.8z"/>
	<path class="st0" d="M128.3,152.9c-1.5-0.4-2.9-0.7-4.4-0.8c-0.3-0.1-0.7-0.2-1-0.4l-0.3-0.2l-1.6,0.2c0,0.1,0.1,0.2,0.1,0.3
		c-0.6,0-1.1,0-1.7,0c-1.3,0-2.6,0-3.9,0.1c-2.8,0.2-5.5,0.5-8.3,1.1c1.5,0.3,2.9,0.5,4.4,0.7c1.2-0.2,2.6-0.3,3.9-0.4
		s2.6-0.1,3.8-0.1c1.5,0,2.9,0.1,4.2,0.2c0.5,0.1,0.9,0.3,1.4,0.4l0.8-0.1c2-0.2,3.9-0.5,5.8-0.8C130.4,153,129.3,153,128.3,152.9z"
		/>
	<path class="st0" d="M155.6,111c-0.7,0-1.3,0.1-1.9,0.2l-0.9,0.1c-1.3,0.1-2.6,0.1-3.9,0.1s-2.3,0-3.3-0.1c0.5,0.9,0.9,1.8,1.3,2.7
		c2.3-0.6,4.6-1.1,6.9-1.3c0.7,0,1.3-0.1,1.9-0.2l0.9-0.1c1.3-0.1,2.6-0.1,3.8-0.1c1.4,0,2.7,0.1,3.9,0.2c-0.5-1-1-1.9-1.7-2.8
		C160.4,110.3,158,110.8,155.6,111z"/>
	<path class="st0" d="M140.4,91.6c-0.5-0.2-0.9-0.5-1.4-0.7c-0.4,0.2-0.7,0.5-1.1,0.6c-1.3,0.6-2.7,1-4.1,1.3
		c-1.7,0.2-3.2,0.5-4.6,0.8c-1,0.1-2.1,0.2-3.2,0.3c-1.3,0.1-2.6,0.1-3.8,0.1c-1.5,0-3-0.1-4.4-0.2c1,0.4,2.5,1,4.3,1.7h0.1h1.6
		l-0.1,0.1c-0.2,0.1-0.4,0.3-0.6,0.4l1.6,0.7c0.2-0.1,0.3-0.2,0.6-0.3c1.3-0.6,2.7-1,4.1-1.3c1.7-0.2,3.2-0.5,4.6-0.8
		c1-0.1,2.1-0.2,3.2-0.3c1.3-0.1,2.6-0.1,3.8-0.1c1.4,0,2.7,0.1,3.9,0.2c-0.9-0.6-1.9-1.1-2.9-1.6H141h-1.6l0.1-0.1
		C139.9,92.2,140.2,91.9,140.4,91.6z"/>
	<path class="st0" d="M158.9,131.5c-1.2,0-2.4,0-3.7,0.1l0,0c-2.5,0-5-0.2-7.5-0.7l-0.3-0.1c-0.2,0.5-0.4,0.9-0.6,1.4
		c0.4,0.1,0.8,0.2,1.2,0.3c-0.5,0.1-1,0.2-1.5,0.3c-0.3,0.6-0.6,1.2-0.9,1.8c3.1-0.8,6.3-1.3,9.6-1.5h0c1.2,0,2.4,0,3.7-0.1l0,0
		c2.1,0,4.1,0.1,6.1,0.4c0.1-0.3,0.2-0.6,0.2-0.8c0.1-0.7,0.3-1.3,0.4-1.9C163.4,131,161.2,131.3,158.9,131.5L158.9,131.5z"/>
	<path class="st0" d="M128.9,86.3l-1.5-0.7c-0.3,0.2-0.6,0.3-0.9,0.5c-1.2,0.5-2.4,0.9-3.7,1.2c-1.9,0.2-3.8,0.5-5.7,0.9
		c-0.8,0.1-1.7,0.2-2.5,0.2c-1.3,0.1-2.6,0.1-3.8,0.1s-2.1,0-3.1-0.1c0.9,0.5,1.8,1.1,2.7,1.6h0.4h1.3H112c-0.2,0.2-0.5,0.3-0.7,0.5
		l1.4,0.8c0.3-0.2,0.6-0.4,0.9-0.5c1.2-0.5,2.4-0.9,3.7-1.2c1.9-0.2,3.8-0.5,5.7-0.9c0.8-0.1,1.7-0.2,2.5-0.2
		c1.3-0.1,2.6-0.1,3.8-0.1c1.6,0,3.3,0.1,4.9,0.3l-3.9-1.7h-2.3h0.1C128.4,86.7,128.7,86.5,128.9,86.3z"/>
	<path class="st0" d="M102.7,51c1.3-0.1,2.6-0.1,3.8-0.1c2.5,0,5,0.2,7.5,0.7c0.6,0.1,1.2,0.3,1.7,0.5l1.6-0.8
		c-0.4-0.3-0.8-0.5-1.3-0.7c-0.6-0.2-1.1-0.4-1.7-0.5c1.7-0.2,3.3-0.4,4.8-0.7l-0.6-1.4c-2.1,0.4-4.2,0.6-6.3,0.8
		c-1.3,0.1-2.6,0.1-3.8,0.1c-2.5,0-5-0.2-7.5-0.7c-0.6-0.1-1.2-0.3-1.8-0.6c-0.5,0.3-1,0.5-1.4,0.8c0.4,0.3,0.8,0.5,1.2,0.6
		c0.6,0.2,1.1,0.4,1.7,0.5c-1.9,0.2-3.8,0.5-5.7,0.8c-0.7,0.6-1.5,1.3-2.1,2.1C96.1,51.7,99.4,51.2,102.7,51z"/>
	<path class="st0" d="M157.1,117.8c-1.3,0.1-2.6,0.1-3.9,0.1c-1.7,0-3.4-0.1-5.1-0.3c0.1,0.5,0.3,1,0.4,1.5c0.4,0,0.8,0.1,1.3,0.1
		l-0.4,0.1l-0.8,0.2c0.1,0.5,0.2,1,0.2,1.5c3.5-1.1,7.2-1.7,10.8-1.9c1.3-0.1,2.6-0.1,3.8-0.1c1,0,2,0,2.9,0.1
		c-0.1-0.8-0.3-1.7-0.6-2.7C162.9,117.2,160,117.6,157.1,117.8z"/>
	<path class="st0" d="M158.2,104.4l-1.2-1.1c-1.7,0.6-3.4,1-5.1,1.3c-2,0.2-3.9,0.4-5.6,0.7H146c-1.3,0.1-2.6,0.1-3.8,0.1h-1.3
		l0.6,0.6c0.5,0.5,1,1,1.5,1.5c1-0.3,2.2-0.5,3.4-0.8c1.9-0.1,3.8-0.4,5.6-0.7h0.3c1.3-0.1,2.6-0.1,3.8-0.1s2.5,0,3.6,0.1
		C159.3,105.5,158.7,105,158.2,104.4l-0.1,0.1L158.2,104.4z"/>
	<path class="st0" d="M150.9,97.9c-0.4-0.3-0.9-0.7-1.3-1l0,0c-1.9,0.8-3.9,1.3-5.9,1.6c-1.5,0.2-3,0.3-4.3,0.6l-1.7,0.1
		c-1.3,0.1-2.6,0.1-3.9,0.1c-1,0-2,0-3-0.1c1.5,0.7,3,1.5,4.4,2.3c1.4-0.4,2.8-0.8,4.3-1c1.5-0.2,3-0.3,4.4-0.6l1.7-0.1
		c1.3-0.1,2.6-0.1,3.8-0.1c1.4,0,2.8,0.1,4,0.2l-0.2-0.2c-0.6-0.5-1.1-1-1.7-1.4h-1.3C150.4,98.2,150.6,98.1,150.9,97.9z"/>
	<path id="Tail" class="st0" d="M141.9,136.3c0-0.2,0-0.4,0.2-0.6c-4,6.8-13.1,11.8-25.9,11.8c-29.1,0-50.7-25.4-34.9-51.9l-1.5-1.1
		c-18.4,24.1-6.4,54.5,27.7,60.4c1.1-0.4,2.3-0.7,3.4-0.9c-1.7-0.2-3.4-0.6-5.1-1.2c0,0,1.4,0.3,11.5-0.5c2.4-0.2,4.3-0.3,6-0.5
		l-0.1-0.3c-0.2-1.7,4.6-3.5,11.1-4.4c1-0.7,2-1.6,3.1-2.6c-0.2-0.2-0.3-0.4-0.3-0.6c-0.1-1,1.5-2,4-2.8c1-1,1.9-2.1,2.8-3.2
		C142.8,137.5,142,137,141.9,136.3z"/>
	<path id="Body_2" class="st0" d="M151.7,39.2c-0.5-1.3-1.2-2.5-2.2-3.5c-1-1.2-1.7-3.3-2.9-4s-6-0.8-8.1-0.9s-0.6-0.9-0.9-1.2
		s-1.8,0.3-3.3,0.7s-3,0-4.6,0.4c-1.3,0.3-2.7,0.5-4,0.5c-0.7,0-2.4,0.7-3,0.7c-1,0.1-2,0.2-2.9,0.5l0,0c-0.6,0-1.2,0-1.8,0v0
		c-15,0-27.9,3.1-37.1,8.2c-4.2,2.3-7.9,5.4-10.8,9.3c-2.6,3.4-4,7.5-4,11.8c0,2.4,0.4,4.7,1.2,6.9c1.7,4.9,4.8,9.3,8.9,12.6
		c6.1,5.1,14.3,8.7,24.1,12.8c9,3.8,19.3,7.9,30.3,13.7c13.6,8.1,16.6,19.4,11.7,27.9c0.6-0.8,2.4-1.7,4.8-2.4
		c0.4-0.8,0.7-1.5,1-2.2c-1.7-0.4-2.7-1-2.8-1.8c-0.1-1,1.6-2,4.2-2.9c0.2-0.8,0.3-1.5,0.3-2.3c-2.1-0.4-3.5-1.1-3.6-1.9
		s1.1-1.8,3.2-2.5c-0.1-0.7-0.3-1.3-0.4-2c-3.5-0.3-5.8-1.1-5.9-2.3c-0.1-1,1.5-2,4.1-2.8c-0.2-0.4-0.4-0.8-0.6-1.3
		c-4.6-0.2-7.8-1.1-7.9-2.4c-0.1-1,1.6-2,4.2-2.9c-0.2-0.3-0.5-0.5-0.8-0.7c-5.8,0-10.1-0.9-10.3-2.4c-0.1-0.8,1.1-1.7,3-2.5l-1.9-1
		c-5.4,0-9.3-1-9.4-2.4c0-0.5,0.3-0.9,0.9-1.4c-1.4-0.6-2.7-1.1-3.8-1.5c-5-0.1-8.5-1-8.7-2.4c0-0.5,0.3-0.9,0.7-1.2
		c-1-0.5-1.9-1.1-3-1.7c-5.2-0.1-8.9-1-9-2.4c0-0.6,0.6-1.2,1.7-1.8c-0.8-0.4-1.5-0.9-2.2-1.3c-0.3-0.2-0.5-0.3-0.8-0.5
		c-3.9-0.3-6.5-1.1-6.6-2.3c0-0.6,0.5-1.2,1.5-1.8c-0.5-0.5-0.9-1-1.3-1.5c-3.8-0.3-6.4-1.1-6.5-2.3c-0.1-0.9,1.4-1.9,3.8-2.7
		c-0.1-0.3-0.2-0.7-0.3-1s-0.1-0.4-0.1-0.6c-3.2-0.4-5.4-1.2-5.5-2.2s1.7-2.1,4.6-3c-0.1-0.8-0.1-1.5-0.1-2.1
		c-2.7-0.4-4.4-1.1-4.5-2.1s2-2.3,5.4-3.2c0.3-0.8,0.6-1.6,1.1-2.4c-1.2-0.4-1.9-0.9-2-1.5c-0.1-1.1,2-2.3,5.4-3.2
		c1.1-1.1,2.4-2.2,3.7-3.1l-0.1-0.4c-0.2-1.7,4.7-3.5,11.2-4.4c0.4-0.1,0.8-0.2,1.3-0.3l0.9,0l0.6,0l1.7-0.1c-0.1,0.9-0.1,1.9,0,2.8
		c0.3,3.2,1.7,3.6,2.6,4.1c-1.2,1.5-2,3.2-2.6,5c-1.2,0.4-2.5,0.7-3.7,1c-0.4,0.4-0.8,0.8-1.1,1.3c2.1,0.3,3.6,0.9,4.1,1.6
		c0,0.3,0,0.7,0,1c0,0.1,0,0.2,0,0.3c-0.8,1-3.2,2.1-6.6,2.8c-0.1,0.4-0.1,0.9-0.1,1.3c4.1,0.3,6.8,1.1,6.9,2.4s-2.4,2.5-6.3,3.5
		c0.1,0.2,0.1,0.5,0.2,0.7c4.8,0.2,8.1,1,8.3,2.4c0.1,1-1.7,2.1-4.7,3l0.2,0.1c6.1-0.1,10.7,0.8,10.8,2.4c0.1,0.9-1.2,1.8-3.3,2.6
		c0.6,0.3,1.3,0.6,2.1,0.9c2,0,4,0.2,6,0.6c0.9,0.9,1.9,1.7,3,2.6c-0.1,0.2-0.3,0.3-0.4,0.4c1.4,0.6,2.8,1.2,4,1.7
		c1.7,0,3.3,0.2,4.9,0.6l-7-4c-1.9-2-3.4-4.2-4.5-6.7c-2-4.3-3.2-8.9-3.5-13.6c0,0,0-0.2,0-0.7s0-1.1,0-1.9c0-1.3,0-3,0.2-4.9
		c0.7,0.3,1.4,0.7,2,1.2c1.2,1,1.6,3.2,3.9,4.9c2.1,1.6,4.1,3.4,6,5.2c1.5,1.4,3.5,2.2,5.6,2c0.6,0,3.2-1,3.4-1.5s0.6,0,0.8-0.7
		l1.8,4.2l-0.3-5.3c0,0,1.3-0.2,3,1.3c0.8,0.8,1.9,1,1.4,0.7c0,0-2.1-2.2-3.4-3.7c-1.9-2.2-2.7-3.2-3.6-4.1c0-0.1-0.1-0.2-0.1-0.3
		L143,59l-0.1-0.3l-2.7-6l0,0c-0.1-0.3-0.1-0.6-0.1-0.8l0,0c0.8-0.4,1.6-0.9,2.2-1.6c0.6-1,0.9-2.2,1-3.3c0.3-0.3,0.7-0.6,1.1-0.8
		c2.5-1.3,0-0.9,2-1.2c0.5-0.1,1.1,0,1.6,0.1h0.1c0.1,0,0.4,0.3-0.1,1.2c-0.4,1-0.9,1.9-1.4,2.8c-0.3,0.6-0.6,1.2-1.1,1.6
		c0.7-0.3,1.4-0.7,2-1.2c0.8-0.8,1.4-1.8,1.8-2.9c0.2-0.7,0.4-1.1,0.4-1.3h0.3c1.6-0.2,2.5-2.6,2.6-3.1
		C152.4,41.2,152.1,40.2,151.7,39.2z M81.8,59.4C80.1,73.6,87,83.9,101.8,92l3.8,2c-5-2.1-9.6-4-13.8-5.9
		c-5.7-2.6-10.6-5.3-14.4-8.4c-3.8-3-6.7-7.1-8.3-11.7c-0.7-2-1.1-4.1-1.1-6.3c0-3.8,1.3-7.6,3.6-10.6c3.5-4.9,9.6-9.1,17.5-12
		c3.4-1.2,6.8-2.2,10.3-2.9C89.2,40.4,83.2,48.5,81.8,59.4z M124.6,77.3c0.3,0.7,0.7,1.4,1,2c-3-2.8-5.6-5.9-7.8-9.3
		c-2.6-4.2-3.6-7.8-3.6-10.9c0-2.9,0.9-5.7,2.5-8c0.1,1.3,1,2.3,2.2,2.8c0.8,0.4,1.5,0.8,2.2,1c-0.2,2.2-0.2,4.1-0.3,5.6
		c0,1.7,0.1,2.7,0.1,2.7C121.3,68,122.6,72.8,124.6,77.3z M133,37.4c1.1,0,2.2,0.4,3.1,1.1c1,0.7,0.8,0.3,0.5,1.2s-0.3,0.7-1.6,1.4
		s-1.3,0.4-2,0s-1-1.1-1.5-3.3C131.9,37.6,132.4,37.4,133,37.4z M141.9,63.1c-0.4,1-2.6,0.8-4,0.6s-1.8-0.8-5.5-4.5
		s-7.6-10.8-7.6-10.8l0.1-1.8c0.4,0,0.8-0.1,1.1-0.1c0.8,0.8,3.7,3.5,7.1,6.6c2,1.8,3.9,3.6,5.7,5.6l3.3,3.8
		C142,62.8,141.9,62.9,141.9,63.1z M140.8,55.7l1.6,3.4l-0.5-0.5c-2.7-2.3-7.6-9.7-9.6-12.1h0.7h0.6c1,0,2.1,0.2,3.1,0.4l2.5,5.3
		c-0.1,0.1-0.2,0.2-0.3,0.3l0.4-0.2L140.8,55.7z M140.8,50c-0.3,0.5-0.6,1-0.9,1.3c0.1-1.4,0.6-2.8,1.4-4h0.3
		C141.6,48.3,141.3,49.3,140.8,50z"/>
	<g id="Body_2-2">
		<path class="st0" d="M163.4,109.1c0.3,0.5,0.6,0.9,0.9,1.4c0.4,0,0.7,0,1,0.1c-0.3-0.6-0.7-1.2-1-1.8L163.4,109.1z"/>
		<path class="st0" d="M152.6,97.9c0.8,0,1.4,0.1,2.1,0.2c-1-0.8-2.1-1.7-3.3-2.5c-0.3,0.3-0.6,0.5-1,0.7
			C151.2,96.8,151.9,97.3,152.6,97.9z"/>
		<path class="st0" d="M161.8,139.5c0.4,0.1,0.8,0.1,1.1,0.2c0.6-0.8,1.2-1.6,1.8-2.5l-1.3,0.3C162.9,138.2,162.4,138.9,161.8,139.5
			z"/>
		<path class="st0" d="M166,131.6v0.1c0.5,0.1,0.9,0.1,1.3,0.2c0.2-0.6,0.4-1.3,0.6-1.9c-0.5,0.1-1.1,0.3-1.6,0.4
			C166.1,130.9,166.1,131.2,166,131.6z"/>
		<path class="st0" d="M167.1,124.4c0.6,0.1,1.1,0.1,1.6,0.2c0-0.5,0-1,0-1.6c-0.5,0.1-1,0.3-1.6,0.4
			C167.1,123.7,167.1,124.1,167.1,124.4z"/>
		<path class="st0" d="M166.3,116.1c0.1,0.4,0.2,0.8,0.3,1.2c0.4,0,0.9,0,1.3,0.1c-0.1-0.5-0.3-1.1-0.4-1.6
			C167.1,115.8,166.7,116,166.3,116.1z"/>
		<path class="st0" d="M140.5,89.1c0,0.4-0.2,0.8-0.5,1c1.3,0.6,2.5,1.3,3.7,1.9c0.8,0,1.6,0.1,2.4,0.1c-0.8-0.4-1.5-0.9-2.3-1.3
			l-3.3-1.9L140.5,89.1z"/>
		<path class="st0" d="M159,102c-0.4,0.2-0.8,0.4-1.1,0.6c0.5,0.5,0.9,0.9,1.4,1.4l1.6,0.1C160.2,103.4,159.6,102.7,159,102z"/>
		<path class="st0" d="M137.8,153.7c-2.7,0.2-5.4,0.3-8.1,0.1c1.1,0.4,1.8,0.8,2,1.4c2.9-0.4,5.7-1,8.5-1.7
			C139.4,153.6,138.6,153.6,137.8,153.7z"/>
		<path class="st0" d="M153.2,146c-0.8,0.5-1.8,1.1-3,1.6c0.9,0.4,1.5,0.8,1.6,1.3c1.9-1,3.7-2.2,5.4-3.5
			C155.9,145.6,154.6,145.8,153.2,146z"/>
	</g>
	<path class="st0" d="M127.8,155.3c-2.6,0.2-5.3,0.3-7.9,0.1c1.1,0.4,1.8,0.8,2,1.3c2.8-0.4,5.5-0.9,8.3-1.7
		C129.4,155.2,128.6,155.3,127.8,155.3z"/>
	<path class="st0" d="M45.5,101.5c-0.4-0.4-0.7-0.9-0.7-1.5c0-0.6,0.3-1.1,0.7-1.4l6.8-6.9c0.4-0.4,0.7-0.9,0.7-1.5
		c0-0.6-0.2-1.1-0.7-1.5c-0.4-0.5-1-0.7-1.5-0.7c-0.6,0.1-1.1,0.3-1.5,0.8c-1.4,1.4-2.7,2.9-3.9,4.5c-1,1.3-1.9,2.7-2.7,4.2
		c-0.7,1.3-1.4,2.6-2,4c-0.6,1.3-1.1,2.6-1.6,4s-1.1,2.7-1.7,4c-0.6,1.4-1.3,2.8-2.1,4.2c-0.9,1.6-1.9,3.1-3,4.5
		c-1.3,1.7-2.8,3.3-4.3,4.9c-0.6,0.6-1.4,1.1-2.2,1.5c-0.8,0.3-1.6,0.4-2.4,0.4c-0.8-0.1-1.7-0.3-2.4-0.7c-0.9-0.4-1.6-1-2.3-1.7
		c-1.4-1.2-2.3-2.9-2.4-4.8c-0.1-1.7,0.6-3.4,1.9-4.5l7.8-7.8c0.1-0.1,0.3-0.2,0.5-0.3c0.2,0,0.4,0.1,0.5,0.2l1.4,1.4
		c0.4,0.4,0.7,0.9,0.7,1.5c0,0.6-0.3,1.1-0.7,1.5l-6.9,6.8c-0.4,0.4-0.7,0.9-0.7,1.5c0,0.6,0.2,1.1,0.7,1.5c0.4,0.5,1,0.7,1.5,0.7
		c0.6-0.1,1.1-0.3,1.5-0.8c1.9-1.9,3.7-4,5.2-6.2c1.2-1.8,2.3-3.7,3.3-5.6c0.9-1.8,1.6-3.6,2.3-5.3s1.4-3.5,2.3-5.3
		c0.9-1.9,2-3.8,3.2-5.6c1.5-2.2,3.2-4.2,5.2-6.1c0.6-0.6,1.4-1.1,2.2-1.5c0.8-0.3,1.6-0.4,2.4-0.4c0.8,0.1,1.7,0.3,2.4,0.7
		c0.9,0.4,1.6,1,2.3,1.7c1.4,1.2,2.3,2.9,2.4,4.8c0,1.7-0.7,3.4-1.9,4.5l-7.8,7.8c-0.1,0.1-0.3,0.2-0.5,0.3c-0.2,0-0.4-0.1-0.5-0.2
		L45.5,101.5z"/>
	<path class="st0" d="M78.3,109.7c0.1,0.1,0.2,0.3,0.2,0.5c0,0.2-0.1,0.4-0.2,0.5l-31.5,37.7c-0.1,0.2-0.3,0.3-0.6,0.3
		c-0.3,0-0.5-0.1-0.7-0.3l-1.3-1.3c-0.4-0.4-0.6-0.9-0.7-1.4c0-0.5,0.1-1,0.4-1.4l4.6-5.2l-2.6-2.6l-5.2,4.6
		c-0.4,0.3-0.9,0.5-1.4,0.4c-0.5,0-1.1-0.3-1.4-0.7l-1.3-1.3c-0.2-0.2-0.3-0.4-0.3-0.7c0-0.2,0.1-0.4,0.3-0.6l37.6-31.5
		c0.1-0.1,0.3-0.2,0.5-0.2c0.2,0,0.4,0.1,0.5,0.2L78.3,109.7z M49,133.8l2.3,2.3l18-20.2L49,133.8z"/>
	<path class="st0" d="M92.8,126.7c0.3-0.4,0.8-0.6,1.3-0.5c0.6,0,1.1,0.3,1.4,0.7l1.4,1.4c0.2,0.1,0.2,0.3,0.2,0.5
		c0,0.2-0.1,0.4-0.3,0.5l-34.3,34.3c-0.5,0.5-1.3,0.5-1.8,0c0,0,0,0,0,0l-1.6-1.6c-0.2-0.2-0.4-0.6-0.4-0.9c0-0.3,0.1-0.7,0.4-0.9
		L92.8,126.7z"/>
	<path class="st0" d="M75,177.8c-0.2-0.1-0.2-0.3-0.2-0.5c0-0.2,0.1-0.4,0.3-0.5l34.7-34.7c0.1-0.1,0.3-0.2,0.5-0.3
		c0.2,0,0.4,0.1,0.5,0.2l1.4,1.4c0.4,0.4,0.7,0.9,0.7,1.4c0,0.5-0.2,1-0.5,1.4l-31.6,31.6l3.1,3.1c0.4,0.3,0.6,0.8,0.5,1.4
		c0,0.5-0.3,1.1-0.7,1.4l-0.9,0.9c-0.1,0.2-0.3,0.2-0.5,0.2c-0.2,0-0.4-0.1-0.5-0.3L75,177.8z"/>
	<path class="st0" d="M112.1,197c-0.4,0.4-0.9,0.7-1.5,0.7c-0.6,0-1.1-0.3-1.5-0.7l-6.8-6.8c-0.4-0.4-0.9-0.7-1.5-0.7
		c-1.2,0.1-2.2,1.1-2.2,2.3c0.1,0.6,0.3,1.1,0.8,1.5c1.4,1.4,2.9,2.7,4.4,3.9c1.3,1,2.7,1.9,4.2,2.7c1.3,0.7,2.6,1.4,4,2
		c1.3,0.6,2.6,1.1,4,1.6s2.7,1.1,4,1.7c1.4,0.6,2.8,1.3,4.2,2.1c1.6,0.9,3.1,1.9,4.5,3c1.7,1.3,3.3,2.8,4.9,4.3
		c0.6,0.6,1.1,1.3,1.5,2.2c0.3,0.8,0.4,1.6,0.4,2.4c-0.1,0.9-0.3,1.7-0.7,2.4c-0.4,0.9-1,1.6-1.7,2.3c-1.2,1.4-2.9,2.3-4.8,2.4
		c-1.7,0-3.4-0.7-4.5-1.9l-7.8-7.8c-0.1-0.1-0.2-0.3-0.3-0.5c0-0.2,0.1-0.4,0.2-0.5l1.4-1.4c0.4-0.4,0.9-0.7,1.5-0.7
		c0.6,0.1,1.1,0.3,1.4,0.7l6.8,6.8c0.4,0.4,0.9,0.7,1.5,0.7c0.6,0,1.1-0.2,1.5-0.7c0.5-0.4,0.7-0.9,0.7-1.5
		c-0.1-0.6-0.3-1.1-0.8-1.5c-1.9-1.9-4-3.7-6.2-5.3c-1.8-1.2-3.7-2.3-5.6-3.3c-1.8-0.9-3.6-1.6-5.3-2.3c-1.8-0.6-3.5-1.4-5.3-2.3
		c-1.9-0.9-3.8-2-5.6-3.2c-2.2-1.5-4.2-3.2-6.1-5.1c-0.6-0.6-1.1-1.4-1.5-2.2c-0.3-0.8-0.4-1.6-0.4-2.4c0.1-0.8,0.3-1.7,0.7-2.4
		c0.4-0.9,1-1.6,1.7-2.3c1.2-1.4,2.9-2.3,4.8-2.4c1.7-0.1,3.4,0.7,4.5,1.9l7.8,7.8c0.1,0.1,0.2,0.3,0.3,0.5c0,0.2-0.1,0.4-0.2,0.5
		L112.1,197z"/>
	<path class="st0" d="M123.7,160.6c0.1-0.2,0.3-0.2,0.5-0.2c0.2,0,0.4,0.1,0.5,0.3l34.7,34.7c0.1,0.1,0.2,0.3,0.3,0.5
		c0,0.2-0.1,0.4-0.2,0.5l-1.4,1.4c-0.3,0.4-0.8,0.6-1.3,0.7c-0.5,0-0.9-0.1-1.3-0.4c-0.5-0.5-1.1-0.9-1.6-1.2
		c-0.9-0.6-1.9-1.4-3.2-2.2l-4.2-2.9l-4.6-3.1l-4.4-3c-1.4-1-2.6-1.8-3.6-2.5l18.1,17.6c0.4,0.4,0.7,0.9,0.7,1.4
		c0,0.6-0.2,1.2-0.7,1.6l-1.4,1.4c-0.1,0.2-0.3,0.2-0.5,0.2c-0.2,0-0.4-0.1-0.5-0.3L115,170.5c-0.1-0.1-0.2-0.3-0.3-0.5
		c0-0.2,0.1-0.4,0.2-0.5l1.4-1.4c0.4-0.4,0.9-0.6,1.4-0.7c0.5,0,1,0.1,1.3,0.5l1.9,1.4c1,0.7,2.1,1.6,3.5,2.6l4.4,3.2
		c1.6,1.2,3.2,2.3,4.7,3.4s3,2.1,4.4,3c1.4,0.9,2.5,1.7,3.4,2.2l-19.2-18.7c-0.4-0.3-0.6-0.8-0.5-1.4c0-0.5,0.3-1.1,0.7-1.4
		L123.7,160.6z"/>
	<path class="st0" d="M143.1,141.3c0.1-0.1,0.3-0.2,0.5-0.2c0.2,0,0.4,0.1,0.5,0.2l37.7,31.5c0.2,0.1,0.3,0.4,0.3,0.6
		c0,0.3-0.1,0.5-0.3,0.7l-1.3,1.3c-0.4,0.4-0.9,0.7-1.4,0.7c-0.5,0-1-0.1-1.4-0.4l-5.2-4.6l-2.6,2.6l4.6,5.2
		c0.3,0.4,0.5,0.9,0.4,1.4c0,0.5-0.3,1.1-0.7,1.4l-1.3,1.3c-0.2,0.2-0.5,0.3-0.7,0.3c-0.2,0-0.4-0.1-0.6-0.3l-31.6-37.7
		c-0.1-0.1-0.2-0.3-0.2-0.5c0-0.2,0.1-0.4,0.2-0.5L143.1,141.3z M167.2,170.6l2.2-2.3l-20.2-18L167.2,170.6z"/>
	<path class="st0" d="M160.8,123.6c0.4-0.4,0.9-0.7,1.4-0.7c0.5,0,1,0.2,1.4,0.5l14.8,14.8l1.1-1.3l-12.8-16.5
		c-0.7-0.9-0.5-2.1,0.3-2.8l1.3-1.3c0.2-0.2,0.4-0.3,0.7-0.3c0.2,0,0.4,0.1,0.6,0.3l14.4,18.7l20.2,15.6c0.2,0.1,0.3,0.3,0.3,0.6
		c0,0.3-0.1,0.5-0.3,0.7l-1.2,1.2c-0.4,0.4-0.9,0.6-1.4,0.7c-0.5,0-1-0.1-1.4-0.4L182.6,140l-1.4,1.1l15.2,15.2
		c0.4,0.4,0.7,0.9,0.7,1.5c0,0.6-0.2,1.1-0.7,1.5l-1.4,1.4c-0.1,0.2-0.3,0.2-0.5,0.2c-0.2,0-0.4-0.1-0.5-0.3l-34.7-34.7
		c-0.1-0.1-0.2-0.3-0.3-0.5c0-0.2,0.1-0.4,0.2-0.5L160.8,123.6z"/>
	<path class="st0" d="M189,95.4c0.1-0.1,0.3-0.2,0.5-0.3c0.2,0,0.4,0.1,0.5,0.2l0.9,0.9c0.4,0.4,0.7,0.9,0.7,1.4
		c0,0.5-0.2,1-0.5,1.4l-3.1,3.1l13.8,13.8l3.4-3.4c0.1-0.1,0.3-0.2,0.5-0.3c0.2,0,0.4,0.1,0.5,0.2l0.9,0.9c0.4,0.4,0.7,0.9,0.7,1.4
		c0,0.5-0.2,1-0.5,1.3l-2.6,2.6l13.4,13.4l3.1-3.1c0.3-0.4,0.8-0.6,1.4-0.5c0.5,0.1,1.1,0.3,1.4,0.7l0.9,0.9
		c0.2,0.1,0.2,0.3,0.2,0.5c0,0.2-0.1,0.4-0.3,0.5l-6.8,6.8c-0.1,0.2-0.3,0.2-0.5,0.2c-0.2,0-0.4-0.1-0.5-0.3l-34.7-34.7
		c-0.1-0.1-0.2-0.3-0.3-0.5c0-0.2,0.1-0.4,0.2-0.5L189,95.4z"/>
	<path class="st1" d="M117.4,9.8L90.8,36.4c2.7-0.8,5.4-1.3,8.2-1.6c0,0-22.6,29.3-22.3,30.1c0.3,0.7-7.2,2.8-7.2,2.8
		c-1-2.7-1.6-5.6-1.7-8.5l-55.3,55.3l13.7,13.7l0,0l85.8,85.7l0,0l14.9,14.9l104.7-104.7L117.4,9.8z"/>
	<path class="st0" d="M144.5,35.6L204.9,96C196,67.1,173.4,44.6,144.5,35.6z"/>
	<path class="st0" d="M117.4,8.4L90,35.8c-28.3,9-50.6,31.2-59.6,59.6l-19.2,19.3l15.3,15.3c3.4,45,39.2,80.7,84.1,84.1l16.5,16.5
		l21.6-21.6c25.4-9.3,45.5-29.3,54.7-54.7l29.8-29.8L117.4,8.4z M127.1,229l-14.9-14.9l0,0l-85.8-85.8l0,0l-13.7-13.7l55.3-55.3
		c0-3.8,1.3-7.4,3.7-10.4c4.6-6,13.2-10.7,18.2-12.2l1-0.3l26.6-26.6l114.5,114.5L127.1,229z"/>
</g>
</svg>
