<svg xmlns="http://www.w3.org/2000/svg" viewBox="0 0 100 57.54"><defs><style>.cls-1{fill:#ffffff;}</style></defs><title>Logo-min</title><g id="Layer_2" data-name="Layer 2"><g id="Design_Artboard_1" data-name="Design Artboard 1"><path class="cls-1" d="M4.16,57.2a4,4,0,0,1-.72.23,3.14,3.14,0,0,1-.75.09,2.81,2.81,0,0,1-1-.18,2.47,2.47,0,0,1-.88-.52A2.65,2.65,0,0,1,0,54.88a2.33,2.33,0,0,1,.32-1.24,3.53,3.53,0,0,1,.62-.8,1.87,1.87,0,0,1,.59-.39A2.78,2.78,0,0,1,2,52.29c.11,0,.23,0,.35-.06l.36,0a3.32,3.32,0,0,1,.53,0,5.07,5.07,0,0,1,.56.13l.38.17v.67a2.36,2.36,0,0,0-1.4-.45,2.24,2.24,0,0,0-1,.21,2.12,2.12,0,0,0-.77.64,2.53,2.53,0,0,0-.28.6,2.07,2.07,0,0,0-.1.66A2.22,2.22,0,0,0,.94,56a1.91,1.91,0,0,0,.8.77,2.31,2.31,0,0,0,1,.25,1.86,1.86,0,0,0,1-.28l.36-.22Z"/><path class="cls-1" d="M10.36,54.38l-.32.45a.56.56,0,0,0-.38-.16.63.63,0,0,0-.48.26,1.38,1.38,0,0,0-.29.58v1.92H8.34V54.27h.51V55a1.47,1.47,0,0,1,.32-.57.87.87,0,0,1,.53-.3A1.13,1.13,0,0,1,10.36,54.38Z"/><path class="cls-1" d="M17.64,56.68a2.1,2.1,0,0,1-.7.6,1.81,1.81,0,0,1-.87.22,1.77,1.77,0,0,1-.84-.21,1.59,1.59,0,0,1-.56-.62,1.85,1.85,0,0,1-.19-.84,1.75,1.75,0,0,1,.35-1.09,1.2,1.2,0,0,1,.73-.55l.51,0a1.69,1.69,0,0,1,.82.2,1.15,1.15,0,0,1,.55.6,2.35,2.35,0,0,1,.18,1H15.05a1.14,1.14,0,0,0,.29.8,1,1,0,0,0,.74.34.88.88,0,0,0,.24,0,1,1,0,0,0,.48-.2,2.21,2.21,0,0,0,.39-.41Zm-.57-1.19a1,1,0,0,0-.37-.63,1,1,0,0,0-.67-.24.86.86,0,0,0-.62.25,1.23,1.23,0,0,0-.34.62Z"/><path class="cls-1" d="M24.4,57.43h-.52V56.8a1.26,1.26,0,0,1-.52.53,1.59,1.59,0,0,1-.73.19,1.5,1.5,0,0,1-.37-.05,1.36,1.36,0,0,1-.46-.21,1.53,1.53,0,0,1-.49-.58,1.82,1.82,0,0,1-.21-.86,1.78,1.78,0,0,1,.16-.75,3.17,3.17,0,0,1,.38-.52,1.34,1.34,0,0,1,.76-.38h.22a1.41,1.41,0,0,1,1.23.67v-.59h.55Zm-.65-1a1.5,1.5,0,0,0,.1-.56,1.47,1.47,0,0,0-.17-.69,1,1,0,0,0-.54-.44,1.17,1.17,0,0,0-.3,0h-.2a1,1,0,0,0-.71.43,1.36,1.36,0,0,0-.26.8,1.16,1.16,0,0,0,.1.49,1.13,1.13,0,0,0,.35.43,1,1,0,0,0,.65.21,1,1,0,0,0,1-.62Z"/><path class="cls-1" d="M30.7,54.72h-.57v2.71h-.55V54.72h-.5v-.44h.5V53h.55v1.28h.57Z"/><path class="cls-1" d="M36.73,53.12l-.1,0a.34.34,0,0,1-.27-.12.44.44,0,0,1-.11-.29.35.35,0,0,1,0-.18.32.32,0,0,1,.15-.13l.12,0h.12a.37.37,0,0,1,.24.14.36.36,0,0,1,.09.24A.35.35,0,0,1,36.73,53.12Zm.19,4.31h-.57V54.26h.57Z"/><path class="cls-1" d="M45.1,54.24l-1.5,3.3h-.14l-1.55-3.3h.67l1,2.34.91-2.34Z"/><path class="cls-1" d="M51.91,56.68a2,2,0,0,1-.7.6,1.76,1.76,0,0,1-.87.22,1.8,1.8,0,0,1-.84-.21,1.67,1.67,0,0,1-.56-.62,1.85,1.85,0,0,1-.19-.84,1.82,1.82,0,0,1,.35-1.09,1.2,1.2,0,0,1,.73-.55l.51,0a1.69,1.69,0,0,1,.82.2,1.21,1.21,0,0,1,.56.6,2.35,2.35,0,0,1,.18,1H49.32a1.19,1.19,0,0,0,.29.8,1,1,0,0,0,.74.34,1,1,0,0,0,.25,0,1,1,0,0,0,.47-.2,2.21,2.21,0,0,0,.39-.41Zm-.57-1.19a1.06,1.06,0,0,0-.36-.63,1,1,0,0,0-.68-.24.88.88,0,0,0-.62.25,1.23,1.23,0,0,0-.34.62Z"/><path class="cls-1" d="M65.36,54.76,64.9,55a.54.54,0,0,0-.28-.32.91.91,0,0,0-.48-.13.78.78,0,0,0-.31.07.38.38,0,0,0-.18.2.59.59,0,0,0,0,.19.46.46,0,0,0,.21.35l1.07.38a.77.77,0,0,1,.36.3.86.86,0,0,1,.12.44,1,1,0,0,1-.17.56,1,1,0,0,1-.48.38l-.25,0-.25,0a1.73,1.73,0,0,1-.72-.16,1.5,1.5,0,0,1-.57-.47l.48-.32a1,1,0,0,0,.33.37.92.92,0,0,0,.48.14.63.63,0,0,0,.38-.11.55.55,0,0,0,.19-.18.35.35,0,0,0,0-.17.44.44,0,0,0-.09-.27.64.64,0,0,0-.27-.18L63.77,56a1,1,0,0,1-.52-.34.88.88,0,0,1-.2-.54.72.72,0,0,1,.3-.65,1.32,1.32,0,0,1,.51-.25,4,4,0,0,1,.53,0,1.2,1.2,0,0,1,.56.18A1.46,1.46,0,0,1,65.36,54.76Z"/><path class="cls-1" d="M71.83,54.72h-.57v2.71H70.7V54.72h-.5v-.44h.5V53h.56v1.28h.57Z"/><path class="cls-1" d="M79.21,56.33a1.37,1.37,0,0,1-.35.78,1.07,1.07,0,0,1-.59.37,3.63,3.63,0,0,1-.44.05,1.59,1.59,0,0,1-.72-.17,1.14,1.14,0,0,1-.51-.51,1.56,1.56,0,0,1-.11-.45V54.24h.58v1.88a1,1,0,0,0,.21.64.66.66,0,0,0,.56.28h.08a.81.81,0,0,0,.5-.24.67.67,0,0,0,.21-.49V54.24h.58Z"/><path class="cls-1" d="M86,57.43h-.52V56.8a1.23,1.23,0,0,1-.49.52,1.43,1.43,0,0,1-.7.18,1.46,1.46,0,0,1-.58-.11,1.4,1.4,0,0,1-.51-.33,1.46,1.46,0,0,1-.34-.53,1.74,1.74,0,0,1-.11-.65,2,2,0,0,1,.26-1,1.43,1.43,0,0,1,.56-.53,1.52,1.52,0,0,1,.75-.19,1.36,1.36,0,0,1,.74.21l.2.17.22.24V52.06H86Zm-.79-.74a1.37,1.37,0,0,0,.27-.85,1.3,1.3,0,0,0-.22-.75,1,1,0,0,0-.65-.41h-.18a1.07,1.07,0,0,0-.71.26.86.86,0,0,0-.34.51q0,.24,0,.3a.38.38,0,0,0,0,.1,1.42,1.42,0,0,0,.26.84.84.84,0,0,0,.73.36,1.53,1.53,0,0,0,.49-.08A1.1,1.1,0,0,0,85.17,56.69Z"/><path class="cls-1" d="M91.57,53.12l-.1,0A.34.34,0,0,1,91.2,53a.39.39,0,0,1-.11-.29.34.34,0,0,1,0-.18.31.31,0,0,1,.16-.13l.11,0h.12a.37.37,0,0,1,.25.14.38.38,0,0,1-.2.61Zm.18,4.31h-.56V54.26h.56Z"/><path class="cls-1" d="M100,55.86A1.61,1.61,0,0,1,99.5,57a1.75,1.75,0,0,1-2.43,0,1.58,1.58,0,0,1-.5-1.19,1.67,1.67,0,0,1,.49-1.21,1.56,1.56,0,0,1,1.19-.5,1.71,1.71,0,0,1,1.24.5A1.64,1.64,0,0,1,100,55.86Zm-.51,0a1.2,1.2,0,0,0-.34-.85,1.09,1.09,0,0,0-.83-.35,1.19,1.19,0,0,0-.85.33,1.1,1.1,0,0,0-.36.83,1.14,1.14,0,0,0,.35.83,1.1,1.1,0,0,0,.83.36,1.17,1.17,0,0,0,.84-.34A1.06,1.06,0,0,0,99.49,55.86Z"/><path class="cls-1" d="M16.61,15.78a8.16,8.16,0,0,1-2.9-1.62l1.64-2a10.3,10.3,0,0,0,2.26,1.37,6.37,6.37,0,0,0,2.77.59,3.44,3.44,0,0,0,2-.54,1.68,1.68,0,0,0,.78-1.54V12a1.93,1.93,0,0,0-.19-.91,1.68,1.68,0,0,0-.62-.69,7.06,7.06,0,0,0-1.13-.54c-.46-.14-1-.34-1.76-.51a18.54,18.54,0,0,1-2.29-.69,6.16,6.16,0,0,1-1.66-.88,3.27,3.27,0,0,1-1-1.25,4.17,4.17,0,0,1-.34-1.87v0a4.51,4.51,0,0,1,.36-1.84,4.25,4.25,0,0,1,1.11-1.44,5.67,5.67,0,0,1,1.76-1A7.67,7.67,0,0,1,19.72,0a9.71,9.71,0,0,1,3.34.54,8.62,8.62,0,0,1,2.38,1.23L24,3.88a10.35,10.35,0,0,0-2.06-1.11,5.64,5.64,0,0,0-2.26-.46,2.88,2.88,0,0,0-1.86.54,1.74,1.74,0,0,0-.69,1.42v.05a2,2,0,0,0,.22,1,1.79,1.79,0,0,0,.71.71,4.6,4.6,0,0,0,1.21.49A17.78,17.78,0,0,0,21.1,7a22.19,22.19,0,0,1,2.23.76,6.41,6.41,0,0,1,1.59.93,4,4,0,0,1,.94,1.23,4.45,4.45,0,0,1,.29,1.69v0a4.72,4.72,0,0,1-.42,2,4,4,0,0,1-1.15,1.47,5.46,5.46,0,0,1-1.84,1,8.49,8.49,0,0,1-2.43.34A10.61,10.61,0,0,1,16.61,15.78Z"/><path class="cls-1" d="M48,16.54,42.57,3.29,38.1,14.21h4.1v2.33H34.15L41.09.27h3l6.92,16.27Z"/><path class="cls-1" d="M64,.25V16.44H60.94V.25Z"/><path class="cls-1" d="M74.66,16.46V.25h3V14h8.59v2.45Z"/><path class="cls-1" d="M2.9,40.68A8,8,0,0,1,0,39.07l1.64-2A10.3,10.3,0,0,0,3.9,38.45,6.52,6.52,0,0,0,6.67,39a3.44,3.44,0,0,0,2-.54A1.68,1.68,0,0,0,9.47,37v-.05A1.9,1.9,0,0,0,9.28,36a1.68,1.68,0,0,0-.62-.69,5.69,5.69,0,0,0-1.13-.54c-.46-.15-1-.34-1.76-.51a20.44,20.44,0,0,1-2.29-.69,6.46,6.46,0,0,1-1.66-.88,3.3,3.3,0,0,1-1-1.26,4.13,4.13,0,0,1-.34-1.86v-.05a4.48,4.48,0,0,1,.36-1.84,4.29,4.29,0,0,1,1.11-1.45,5.8,5.8,0,0,1,1.77-1A7.56,7.56,0,0,1,6,24.91a9.71,9.71,0,0,1,3.34.54,8.9,8.9,0,0,1,2.38,1.22l-1.45,2.11a10.33,10.33,0,0,0-2.06-1.1A5.65,5.65,0,0,0,6,27.21a2.94,2.94,0,0,0-1.86.54,1.77,1.77,0,0,0-.69,1.43v.05a2.05,2.05,0,0,0,.22,1,1.86,1.86,0,0,0,.71.71,5,5,0,0,0,1.21.49,18,18,0,0,0,1.84.51c.83.25,1.57.5,2.23.77a6.12,6.12,0,0,1,1.59.93,4,4,0,0,1,.94,1.22,4.54,4.54,0,0,1,.29,1.7v.05a4.68,4.68,0,0,1-.42,2,4.09,4.09,0,0,1-1.15,1.48A5.63,5.63,0,0,1,9,41a8.49,8.49,0,0,1-2.43.35A10.4,10.4,0,0,1,2.9,40.68Z"/><path class="cls-1" d="M35,41.37l-8.83-11.6v11.6h-3V25.15h3l8.56,11.27V25.15h3V41.37Z"/><path class="cls-1" d="M74.33,41.35,67.88,34v7.36h-3V25.15h3v7.36l6.45-7.36h3.39l-7.14,8.1,7.14,8.1Z"/><path class="cls-1" d="M100,25.18v2.38H87.78V25.18ZM100,39v2.38H87.78V32.07H95v2.38H90.41V39Z"/><path class="cls-1" d="M57.84,39.63l-.25-.35-.25-.34-.24-.35c-.65-.92-1.27-1.86-1.81-2.81a26.63,26.63,0,0,1-1.5-2.9l-.16-.37c-.06-.12-.1-.25-.15-.37s-.2-.49-.28-.74a13.44,13.44,0,0,1-.43-1.5,6.2,6.2,0,0,1-.14-.75l-.1-.77c0-.52-.09-1-.1-1.55s0-1-.06-1.55c0-.22,0-.44,0-.66H50.24c0,.22,0,.44,0,.66,0,.51,0,1-.06,1.55s-.06,1-.1,1.55l-.1.77a6.2,6.2,0,0,1-.14.75,13.44,13.44,0,0,1-.43,1.5c-.08.25-.19.49-.28.74s-.09.25-.15.37l-.16.37a26.63,26.63,0,0,1-1.5,2.9c-.54.95-1.17,1.89-1.81,2.81l-.24.35-.25.34-.25.35L44.5,40c-.34.45-.69.9-1.06,1.34l.16.1c.86-.82,1.66-1.68,2.43-2.56l.29-.33.28-.33.55-.68.53-.68.52-.69A30.43,30.43,0,0,0,50,33.26l.21-.37.18-.38c.12-.26.25-.51.37-.77.17-.42.35-.84.49-1.28.15.44.33.86.5,1.28.12.26.25.51.37.77l.18.38.21.37a30.43,30.43,0,0,0,1.84,2.88l.52.69.53.68.55.68.28.33.29.33c.77.88,1.57,1.74,2.43,2.56l.16-.1c-.37-.44-.72-.89-1.06-1.34Z"/></g></g></svg>