<svg id="Layer_1" data-name="Layer 1" xmlns="http://www.w3.org/2000/svg" viewBox="0 0 1000 800.25"><defs><style>.cls-1,.cls-2,.cls-6{fill:#fff;}.cls-2,.cls-6{font-size:150px;font-family:BabaPro, BabaPro;}.cls-2{letter-spacing:0.07em;}.cls-3{letter-spacing:0.15em;}.cls-4{letter-spacing:0.18em;}.cls-5{letter-spacing:0.15em;}.cls-6{letter-spacing:0.19em;}</style></defs><title>Artboard 50 copy 4</title><path class="cls-1" d="M210.81,759.71a26.24,26.24,0,0,1-4.53,1.46,21.55,21.55,0,0,1-4.67.51,18.51,18.51,0,0,1-6.31-1.07,17,17,0,0,1-5.51-3.26,16.8,16.8,0,0,1-5.07-12.17,14.74,14.74,0,0,1,2-7.82,23.08,23.08,0,0,1,3.91-5,12.88,12.88,0,0,1,3.65-2.45,22.36,22.36,0,0,1,2.84-1,18.37,18.37,0,0,1,2.24-.38,18.68,18.68,0,0,1,2.21-.13,20.92,20.92,0,0,1,3.35.28,29.23,29.23,0,0,1,3.52.79l2.37,1.08v4.21a14.85,14.85,0,0,0-8.77-2.84,14.08,14.08,0,0,0-6,1.31,12.87,12.87,0,0,0-4.81,4,14.14,14.14,0,0,0-1.78,3.74,13.78,13.78,0,0,0-.62,4.13,13.57,13.57,0,0,0,1.82,6.85,11.86,11.86,0,0,0,5,4.82,14.36,14.36,0,0,0,6.51,1.61,11.88,11.88,0,0,0,6.4-1.76l2.24-1.42Z"/><path class="cls-1" d="M249.7,742l-2.06,2.84a3.47,3.47,0,0,0-2.32-1,4,4,0,0,0-3,1.65,8.37,8.37,0,0,0-1.8,3.64v12H237V741.31h3.23v4.86a9,9,0,0,1,2-3.59,5.34,5.34,0,0,1,3.33-1.87A7.32,7.32,0,0,1,249.7,742Z"/><path class="cls-1" d="M295.3,756.44a13,13,0,0,1-4.38,3.78,11.41,11.41,0,0,1-5.46,1.38,10.94,10.94,0,0,1-5.24-1.33,9.83,9.83,0,0,1-3.52-3.92,11.44,11.44,0,0,1-1.21-5.24,11.29,11.29,0,0,1,2.22-6.85q2.21-3,4.55-3.4a25.57,25.57,0,0,1,3.2-.36,11,11,0,0,1,5.14,1.24,7.62,7.62,0,0,1,3.5,3.81,14.75,14.75,0,0,1,1.12,6H279.06a7.37,7.37,0,0,0,1.84,5,5.88,5.88,0,0,0,4.63,2.11,6,6,0,0,0,1.54-.18,6.24,6.24,0,0,0,3-1.22,12.88,12.88,0,0,0,2.45-2.6ZM291.74,749a6.74,6.74,0,0,0-2.28-3.93,6.41,6.41,0,0,0-4.25-1.53,5.32,5.32,0,0,0-3.85,1.62,7.63,7.63,0,0,0-2.17,3.84Z"/><path class="cls-1" d="M337.68,761.13h-3.22v-4a7.65,7.65,0,0,1-3.27,3.32,9.42,9.42,0,0,1-4.6,1.19,10.44,10.44,0,0,1-2.32-.25,9.77,9.77,0,0,1-2.83-1.34,9.2,9.2,0,0,1-3.08-3.62,11.45,11.45,0,0,1-.33-10.12,16.42,16.42,0,0,1,2.38-3.25,8.07,8.07,0,0,1,4.76-2.39,6.75,6.75,0,0,0,.75,0,5.82,5.82,0,0,1,.62,0,9.06,9.06,0,0,1,4.39,1.07,9.36,9.36,0,0,1,3.35,3.14v-3.7h3.4Zm-4-6.34a9.4,9.4,0,0,0,.64-3.46,8.43,8.43,0,0,0-1.11-4.33,6.63,6.63,0,0,0-3.34-2.8,7.92,7.92,0,0,0-1.89-.27l-1.28,0a6.56,6.56,0,0,0-4.41,2.7,8.23,8.23,0,0,0-1.68,5,7.49,7.49,0,0,0,.63,3.09,7.59,7.59,0,0,0,2.24,2.72,6.2,6.2,0,0,0,4,1.32,6.65,6.65,0,0,0,6.17-3.93Z"/><path class="cls-1" d="M377.22,744.15h-3.57v17h-3.48v-17H367V741.4h3.14v-8h3.48v8h3.57Z"/><path class="cls-1" d="M415,734.14a4.33,4.33,0,0,1-.64.08,2.17,2.17,0,0,1-1.7-.75,2.58,2.58,0,0,1-.67-1.78,2.24,2.24,0,0,1,.28-1.14,2.21,2.21,0,0,1,1-.84l.71-.22a1.39,1.39,0,0,1,.75,0,2.28,2.28,0,0,1,1.54.82,2.34,2.34,0,0,1,.56,1.54A2.23,2.23,0,0,1,415,734.14Zm1.16,27h-3.57V741.27h3.57Z"/><path class="cls-1" d="M467.51,741.14l-9.41,20.67h-.9l-9.7-20.67h4.21l6.14,14.68,5.67-14.68Z"/><path class="cls-1" d="M510.19,756.44a13,13,0,0,1-4.38,3.78,11.41,11.41,0,0,1-5.46,1.38,11,11,0,0,1-5.25-1.33,9.9,9.9,0,0,1-3.52-3.92,11.56,11.56,0,0,1-1.2-5.24,11.35,11.35,0,0,1,2.21-6.85q2.22-3,4.56-3.4a25.57,25.57,0,0,1,3.2-.36,10.89,10.89,0,0,1,5.13,1.24,7.59,7.59,0,0,1,3.51,3.81,14.93,14.93,0,0,1,1.11,6H494a7.37,7.37,0,0,0,1.84,5,5.88,5.88,0,0,0,4.63,2.11,6.08,6.08,0,0,0,1.54-.18,6.24,6.24,0,0,0,3-1.22,12.86,12.86,0,0,0,2.44-2.6ZM506.62,749a6.67,6.67,0,0,0-2.27-3.93,6.44,6.44,0,0,0-4.26-1.53,5.35,5.35,0,0,0-3.85,1.62,7.61,7.61,0,0,0-2.16,3.84Z"/><path class="cls-1" d="M594.56,744.41l-2.93,1.67a3.42,3.42,0,0,0-1.74-2,5.92,5.92,0,0,0-3-.8,4.19,4.19,0,0,0-2,.45,2.3,2.3,0,0,0-1.14,1.21,3.62,3.62,0,0,0-.28,1.23,3,3,0,0,0,1.29,2.19l6.7,2.37a4.79,4.79,0,0,1,2.28,1.9,5,5,0,0,1,.78,2.71,6.35,6.35,0,0,1-1.1,3.56,6,6,0,0,1-3,2.35c-.45.11-1,.21-1.56.3a12.13,12.13,0,0,1-1.62.12,10.47,10.47,0,0,1-4.49-1,9.27,9.27,0,0,1-3.54-2.92l3-2a5.49,5.49,0,0,0,2.07,2.31,5.41,5.41,0,0,0,3,.87,4.14,4.14,0,0,0,2.43-.64,3.57,3.57,0,0,0,1.18-1.16,2.45,2.45,0,0,0,.26-1.08,2.59,2.59,0,0,0-.6-1.66,3.7,3.7,0,0,0-1.68-1.14c-1.37-.41-2.81-.85-4.32-1.34a6.19,6.19,0,0,1-3.24-2.11,5.42,5.42,0,0,1-1.25-3.4,4.61,4.61,0,0,1,1.84-4.07,8.69,8.69,0,0,1,3.24-1.53,18.75,18.75,0,0,1,3.31-.26,7.17,7.17,0,0,1,3.48,1.12A9.78,9.78,0,0,1,594.56,744.41Z"/><path class="cls-1" d="M635.09,744.15h-3.57v17H628v-17H624.9V741.4H628v-8h3.48v8h3.57Z"/><path class="cls-1" d="M681.37,754.25a8.77,8.77,0,0,1-2.17,4.92,6.66,6.66,0,0,1-3.69,2.28,19.73,19.73,0,0,1-2.78.32,9.86,9.86,0,0,1-4.55-1,7.19,7.19,0,0,1-3.18-3.2,10.31,10.31,0,0,1-.69-2.84V741.14H668v11.78a6.58,6.58,0,0,0,1.31,4.06,4.18,4.18,0,0,0,3.5,1.74h.52a5.12,5.12,0,0,0,3.12-1.53,4.22,4.22,0,0,0,1.31-3.08v-13h3.65Z"/><path class="cls-1" d="M723.66,761.13h-3.22v-4a7.61,7.61,0,0,1-3.11,3.29A8.76,8.76,0,0,1,713,761.6a9.91,9.91,0,0,1-3.63-.69,9.44,9.44,0,0,1-3.2-2.08,9,9,0,0,1-2.14-3.31,11.67,11.67,0,0,1-.71-4.06,13.1,13.1,0,0,1,1.64-6.36,8.79,8.79,0,0,1,3.5-3.31,9.77,9.77,0,0,1,4.71-1.21,8.55,8.55,0,0,1,4.66,1.34,11.18,11.18,0,0,1,1.26,1.07q.6.6,1.38,1.5v-17h3.22Zm-4.94-4.6a8.64,8.64,0,0,0,1.72-5.37,8.09,8.09,0,0,0-1.4-4.67,6.11,6.11,0,0,0-4.06-2.56c-.52,0-.9-.08-1.16-.08a6.6,6.6,0,0,0-4.45,1.65,5.45,5.45,0,0,0-2.11,3.18c-.12,1-.2,1.64-.21,1.87s0,.43,0,.61a8.75,8.75,0,0,0,1.61,5.28,5.32,5.32,0,0,0,4.58,2.24,8.75,8.75,0,0,0,3-.5A6.64,6.64,0,0,0,718.72,756.53Z"/><path class="cls-1" d="M758.86,734.14a4.33,4.33,0,0,1-.64.08,2.17,2.17,0,0,1-1.7-.75,2.58,2.58,0,0,1-.67-1.78,2.24,2.24,0,0,1,.28-1.14,2.21,2.21,0,0,1,1-.84l.71-.22a1.39,1.39,0,0,1,.75,0,2.32,2.32,0,0,1,1.55.82,2.38,2.38,0,0,1,.55,1.54A2.23,2.23,0,0,1,758.86,734.14Zm1.16,27h-3.57V741.27H760Z"/><path class="cls-1" d="M811.72,751.29a10,10,0,0,1-3.16,7.41,11,11,0,0,1-15.21,0,10,10,0,0,1-3.16-7.46,10.46,10.46,0,0,1,3.07-7.58,10.05,10.05,0,0,1,7.5-3.16,10.7,10.7,0,0,1,7.74,3.13A10.3,10.3,0,0,1,811.72,751.29Zm-3.22,0a7.34,7.34,0,0,0-2.13-5.31,6.93,6.93,0,0,0-5.18-2.21,7.48,7.48,0,0,0-5.35,2.12,6.86,6.86,0,0,0-2.21,5.15,7.27,7.27,0,0,0,2.15,5.25,6.92,6.92,0,0,0,5.2,2.22,7.44,7.44,0,0,0,5.28-2.09A6.76,6.76,0,0,0,808.5,751.28Z"/><text class="cls-2" transform="translate(272.21 218.04)">S<tspan class="cls-3" x="124.8" y="0">A</tspan><tspan class="cls-4" x="289.5" y="0">I</tspan><tspan class="cls-5" x="373.35" y="0">L</tspan></text><text class="cls-6" transform="translate(182.46 687.46)">S<tspan class="cls-5" x="142.65" y="0" xml:space="preserve">N  KE</tspan></text><path class="cls-1" d="M543,673.92l-1.52-2.1-1.53-2.1-1.47-2.12c-3.92-5.65-7.72-11.35-11.07-17.2a160.86,160.86,0,0,1-9.13-17.73l-1-2.24c-.31-.75-.59-1.51-.89-2.27-.58-1.51-1.19-3-1.74-4.52a88.07,88.07,0,0,1-2.58-9.15,46.93,46.93,0,0,1-.9-4.61l-.62-4.71c-.22-3.16-.54-6.3-.57-9.47-.2-3.16-.18-6.33-.37-9.49s-.3-6.34-.42-9.52l.05-7.39,278.3-164.41L503.05,234h0L218.54,404.89,496.84,569.3l.05,7.39c-.12,3.18-.35,6.35-.42,9.52s-.18,6.33-.37,9.49-.35,6.31-.58,9.47l-.61,4.71a46.93,46.93,0,0,1-.9,4.61,88.07,88.07,0,0,1-2.58,9.15c-.55,1.51-1.17,3-1.74,4.52-.3.76-.58,1.52-.89,2.27l-1,2.24a162.61,162.61,0,0,1-9.13,17.73c-3.35,5.85-7.15,11.55-11.07,17.2l-1.48,2.12-1.52,2.1-1.53,2.1L461.48,676c-2.07,2.79-4.22,5.55-6.46,8.25l1,.58c5.27-5,10.16-10.27,14.85-15.64l1.76-2c.58-.68,1.14-1.37,1.7-2,1.12-1.37,2.3-2.72,3.37-4.11l3.27-4.17,3.15-4.24A175.42,175.42,0,0,0,495.38,635l1.25-2.28c.4-.77.76-1.55,1.14-2.32.74-1.55,1.52-3.1,2.23-4.66,1-2.6,2.16-5.17,3-7.83.88,2.66,2,5.23,3,7.83.71,1.56,1.49,3.11,2.23,4.66.38.77.74,1.55,1.13,2.32l1.26,2.28A175.42,175.42,0,0,0,522,652.61l3.14,4.24,3.28,4.17c1.07,1.39,2.25,2.74,3.36,4.11.57.68,1.13,1.37,1.71,2l1.76,2c4.69,5.37,9.58,10.61,14.84,15.64l1-.58c-2.24-2.7-4.38-5.46-6.46-8.25Zm48.86-166.64c20.36-24.34,24.79-38.15,31.11-67l.38-1.73-54.76-33.66c60.43-42,101.39-61.83,204.2.38ZM706.47,365.45c-27.26-7.81-48-9.12-68.12-4.72-23.88,5.23-45.42,18.15-78.23,38.75-38.15-24.55-46.19-96.86-46.53-100.13l-.16-45.81ZM492.67,253.54l-.17,45.81c-.34,3.27-8.38,75.58-46.52,100.13-32.82-20.6-54.36-33.52-78.23-38.75-20.13-4.4-40.87-3.09-68.13,4.72Zm-259.4,151.7c102.82-62.21,143.78-42.34,204.21-.38l-54.76,33.66.38,1.73c6.31,28.88,10.74,42.69,31.1,67Zm249.8,143.9c-46.22-28.46-79.73-49.09-91.93-106.74,8.7-5.19,16.82-9.8,24-13.88,41.82-23.71,63.41-35.95,77.44-90.08l10.49-41,10.39,41c14,54.13,35.61,66.37,77.43,90.08,7.21,4.08,15.33,8.69,24,13.88-12.19,57.65-45.71,78.28-91.93,106.74q-5,3.08-10.18,6.28l-9.79,6.17-9.8-6.17Q488.08,552.21,483.07,549.14Z"/></svg>